<svg xmlns="http://www.w3.org/2000/svg" width="1254" height="836" viewBox="0 0 1254 836">
<g>
<path d="M 407.07 321.59 C406.76,321.90 406.25,327.86 405.94,334.83 L 405.38 347.50 L 405.19 334.64 C405.02,322.84 404.86,321.84 403.25,322.48 C401.52,323.16 394.31,324.67 388.50,325.56 C386.09,325.93 385.89,325.84 387.50,325.11 C388.60,324.60 391.08,323.71 393.00,323.13 C396.06,322.20 396.13,322.13 393.50,322.52 C386.12,323.61 384.65,324.00 382.37,325.49 C381.03,326.37 379.44,326.77 378.83,326.40 C377.39,325.51 362.87,325.89 359.27,326.92 C357.75,327.35 355.68,327.42 354.67,327.06 C352.23,326.20 337.99,327.61 336.77,328.83 C336.22,329.38 334.63,329.47 333.14,329.04 C331.68,328.62 327.33,328.70 323.49,329.22 C317.69,330.01 315.99,329.89 313.48,328.55 C311.24,327.35 309.47,327.14 306.57,327.74 C302.18,328.66 285.77,327.48 283.12,326.06 C280.17,324.48 278.64,326.36 281.08,328.57 C283.80,331.02 287.56,338.46 288.39,343.00 C288.81,345.27 288.19,344.31 286.65,340.27 C283.85,332.96 279.98,327.54 276.20,325.65 C274.71,324.91 268.77,323.05 263.00,321.53 C248.01,317.57 240.00,314.96 240.00,314.04 C240.00,313.60 241.24,312.79 242.75,312.23 C250.64,309.31 328.94,283.90 331.50,283.42 C333.55,283.03 338.76,284.27 348.00,287.32 C368.80,294.20 413.75,308.68 420.96,310.82 C431.19,313.86 430.26,315.39 416.03,318.93 C411.42,320.08 407.39,321.28 407.07,321.59 ZM 900.00 430.00 L 900.00 444.00 L 849.00 444.00 L 849.00 381.00 L 900.00 381.00 L 900.00 393.00 L 884.25 392.78 L 868.50 392.56 L 899.00 391.95 L 899.00 382.00 L 876.08 382.00 C863.48,382.00 852.45,382.27 851.58,382.61 C850.19,383.14 850.00,386.73 850.00,412.61 L 850.00 442.00 L 899.00 442.00 L 899.00 431.00 L 864.92 431.00 L 865.50 415.50 L 879.75 415.22 L 894.00 414.95 L 894.00 404.00 L 865.00 404.00 L 865.00 398.56 C865.00,391.44 866.80,390.34 867.20,397.22 L 867.50 402.50 L 881.75 402.78 L 896.00 403.05 L 896.00 417.14 L 866.50 416.50 L 866.83 423.25 L 867.16 430.00 ZM 250.50 310.85 C248.49,311.51 273.33,311.86 325.92,311.91 C369.05,311.96 404.14,311.80 403.90,311.56 C402.93,310.59 253.42,309.90 250.50,310.85 ZM 781.63 443.05 C779.99,442.43 779.02,442.45 778.80,443.11 C777.52,446.93 777.00,439.34 777.00,417.13 C777.00,400.43 777.34,391.94 777.98,392.58 C778.55,393.15 779.07,403.57 779.23,417.53 L 779.50 441.50 L 796.29 441.77 C806.89,441.95 812.87,442.41 812.48,443.02 C811.70,444.29 784.95,444.31 781.63,443.05 ZM 699.00 443.00 C696.83,444.40 686.65,444.22 684.88,442.75 C684.05,442.06 682.83,440.15 682.17,438.50 C681.06,435.74 681.09,435.66 682.48,437.44 C683.32,438.51 684.00,439.97 684.00,440.69 C684.00,441.66 686.13,442.00 692.25,442.02 C697.95,442.03 700.04,442.33 699.00,443.00 ZM 382.00 328.07 C382.00,328.58 381.49,329.00 380.88,329.00 C380.10,329.00 380.14,328.54 381.00,327.50 C381.68,326.67 382.98,326.05 383.87,326.12 C385.25,326.21 385.23,326.30 383.75,326.69 C382.79,326.94 382.00,327.56 382.00,328.07 Z" fill="rgb(41,71,125)"/>
<path d="M 349.50 478.94 C341.22,481.31 338.93,481.41 337.25,479.50 C335.72,477.77 335.61,475.00 337.06,475.00 C337.64,475.00 337.86,474.59 337.55,474.09 C337.24,473.58 337.46,473.01 338.04,472.82 C338.62,472.63 339.16,471.46 339.26,470.24 C339.35,469.01 339.81,468.00 340.27,468.00 C340.74,468.00 340.86,467.59 340.55,467.09 C340.24,466.58 340.40,466.02 340.90,465.84 C341.41,465.65 341.97,464.60 342.16,463.50 C342.35,462.40 342.83,461.26 343.22,460.96 C343.62,460.66 344.15,459.31 344.40,457.96 C344.65,456.61 344.94,455.27 345.04,455.00 C345.15,454.73 345.18,454.16 345.12,453.75 C345.05,453.34 345.48,453.00 346.06,453.00 C346.64,453.00 346.84,452.55 346.50,452.00 C346.16,451.45 346.43,451.00 347.11,451.00 C347.78,451.00 348.05,450.72 347.70,450.37 C347.35,450.02 347.70,448.84 348.46,447.75 C349.22,446.66 349.61,445.15 349.32,444.39 C349.03,443.62 349.31,443.00 349.95,443.00 C350.59,443.00 350.80,442.48 350.41,441.86 C349.92,441.07 350.52,440.87 352.33,441.21 C355.28,441.78 357.41,439.94 358.37,436.00 C358.71,434.62 358.72,434.07 358.41,434.76 C358.09,435.45 357.39,435.74 356.85,435.41 C356.31,435.07 357.69,432.93 359.93,430.65 C362.16,428.37 366.28,424.06 369.09,421.07 C373.62,416.25 374.84,415.53 379.85,414.66 C389.19,413.03 395.53,413.26 397.79,415.31 C398.89,416.30 401.52,417.30 403.64,417.52 C408.97,418.09 417.81,420.60 419.56,422.05 C420.69,422.99 421.00,422.97 421.00,421.96 C421.00,421.25 421.27,420.94 421.60,421.27 C421.93,421.59 420.78,424.65 419.05,428.06 C416.81,432.47 416.35,434.08 417.45,433.66 C418.58,433.22 419.00,433.71 419.00,435.45 C419.00,436.76 419.49,438.00 420.09,438.20 C420.82,438.44 420.67,439.70 419.61,442.03 C418.75,443.94 417.57,447.41 416.99,449.73 C416.41,452.06 414.88,455.19 413.60,456.67 L 411.28 459.38 L 394.39 459.65 C375.07,459.97 357.24,462.77 349.75,466.68 C348.23,467.47 346.55,467.84 346.00,467.50 C345.43,467.15 345.00,468.00 345.00,469.47 C345.00,472.78 346.75,473.41 351.98,472.01 C363.55,468.89 380.05,467.01 395.80,467.00 C414.77,467.00 415.10,466.85 418.86,456.44 C420.04,453.17 421.50,449.65 422.10,448.62 C422.69,447.59 423.37,445.68 423.60,444.40 C423.84,443.11 424.55,440.80 425.18,439.28 C425.81,437.75 426.25,436.16 426.16,435.75 C426.07,435.34 426.45,435.00 427.00,435.00 C427.55,435.00 427.94,434.66 427.86,434.25 C427.42,431.95 430.46,426.92 432.61,426.38 C438.76,424.84 440.02,431.12 435.89,442.80 C434.20,447.58 431.26,456.05 429.36,461.62 C427.33,467.57 424.94,472.65 423.55,473.95 C421.27,476.09 420.87,476.13 412.18,475.07 C402.94,473.95 371.65,473.48 370.09,474.44 C369.62,474.74 366.37,475.42 362.87,475.96 C359.36,476.50 353.35,477.84 349.50,478.94 ZM 338.72 502.45 C332.13,504.58 329.98,504.36 318.50,500.38 C296.32,492.68 277.99,490.70 251.00,493.08 C244.12,493.69 237.60,494.57 236.50,495.04 C235.40,495.51 231.17,496.39 227.10,496.98 C220.42,497.96 219.55,497.89 218.02,496.25 C216.25,494.35 215.45,491.93 214.43,485.40 C214.09,483.25 213.43,481.36 212.96,481.19 C212.50,481.01 212.36,480.22 212.66,479.44 C212.97,478.65 212.67,478.00 212.00,478.00 C211.33,478.00 211.04,477.33 211.36,476.50 C211.68,475.67 211.61,475.00 211.22,475.00 C210.82,475.00 210.43,473.78 210.34,472.28 C210.26,470.78 209.72,469.41 209.15,469.22 C208.58,469.03 208.36,468.22 208.66,467.44 C208.97,466.65 208.81,466.00 208.31,466.00 C207.81,466.00 207.58,464.47 207.80,462.59 C208.18,459.35 208.41,459.17 212.69,458.83 C215.15,458.63 217.37,458.80 217.62,459.19 C217.86,459.59 218.72,459.66 219.53,459.35 C220.43,459.01 221.00,459.38 221.00,460.31 C221.00,465.41 230.66,485.00 232.35,483.32 C232.71,482.96 233.00,483.19 233.00,483.83 C233.00,485.21 240.60,485.45 241.44,484.10 C241.75,483.60 244.81,482.87 248.25,482.47 C254.76,481.71 284.92,481.64 291.00,482.37 C297.54,483.15 302.02,484.22 302.60,485.15 C302.91,485.66 304.03,485.81 305.08,485.47 C306.20,485.12 307.00,485.34 307.00,485.99 C307.00,486.61 307.42,486.86 307.93,486.54 C309.07,485.84 322.00,491.02 322.00,492.18 C322.00,492.63 322.90,493.00 324.00,493.00 C325.10,493.00 326.00,493.48 326.00,494.06 C326.00,494.64 326.45,494.84 327.00,494.50 C327.55,494.16 328.00,494.28 328.00,494.77 C328.00,496.80 335.14,495.05 344.76,490.67 C350.40,488.10 356.59,485.89 358.51,485.75 C360.43,485.61 362.00,485.13 362.00,484.68 C362.00,484.23 362.90,484.15 364.00,484.50 C365.10,484.85 366.00,484.70 366.00,484.17 C366.00,482.01 397.49,480.93 416.69,482.42 L 425.88 483.13 L 428.93 480.22 C430.60,478.62 431.68,477.01 431.32,476.65 C430.96,476.29 431.22,476.00 431.89,476.00 C432.57,476.00 432.84,475.55 432.50,475.00 C432.16,474.45 432.25,474.00 432.69,474.00 C433.14,474.00 433.57,472.82 433.65,471.37 C433.74,469.92 434.29,468.44 434.88,468.08 C435.47,467.71 436.15,466.31 436.40,464.96 C436.65,463.61 436.94,462.27 437.04,462.00 C437.15,461.73 437.18,461.14 437.10,460.71 C437.03,460.27 437.52,458.92 438.20,457.71 C438.87,456.49 439.33,455.16 439.21,454.75 C439.10,454.34 439.50,454.00 440.11,454.00 C440.72,454.00 440.95,453.33 440.64,452.50 C440.32,451.67 440.39,451.00 440.78,451.00 C441.18,451.00 441.56,449.99 441.63,448.75 C441.74,446.88 442.54,444.68 445.54,438.00 C445.67,437.73 446.09,436.53 446.47,435.35 C446.86,434.17 447.70,433.30 448.34,433.41 C451.52,433.99 454.67,435.42 456.16,436.99 C457.71,438.61 457.69,439.19 455.83,445.61 C452.80,456.14 451.24,461.12 449.59,465.50 C448.76,467.70 448.07,470.33 448.04,471.35 C448.02,472.37 447.37,474.62 446.59,476.35 C445.82,478.08 444.42,482.78 443.48,486.78 C442.54,490.79 441.03,494.98 440.12,496.10 C438.61,497.97 438.03,498.05 433.48,497.04 C421.56,494.41 418.75,494.00 405.12,492.89 C383.78,491.15 359.65,494.05 345.50,500.05 C344.40,500.52 341.35,501.60 338.72,502.45 ZM 923.00 424.94 C923.00,434.81 922.66,443.02 922.25,443.19 C921.84,443.36 918.46,443.37 914.75,443.20 L 908.00 442.91 L 908.00 380.93 L 917.75 381.21 L 927.50 381.50 L 935.00 396.67 C940.96,408.73 942.74,411.57 943.69,410.53 C944.34,409.81 944.61,408.94 944.27,408.61 C943.94,408.27 944.22,408.00 944.89,408.00 C945.57,408.00 945.84,407.55 945.50,407.00 C945.16,406.45 945.39,406.00 946.00,406.00 C946.61,406.00 946.84,405.55 946.50,405.00 C946.16,404.45 946.39,404.00 947.00,404.00 C947.61,404.00 947.84,403.55 947.50,403.00 C947.16,402.45 947.39,402.00 948.00,402.00 C948.61,402.00 948.84,401.55 948.50,401.00 C948.16,400.45 948.43,400.00 949.11,400.00 C949.78,400.00 950.05,399.72 949.71,399.38 C949.37,399.04 949.75,398.10 950.56,397.30 C951.36,396.50 951.76,395.43 951.45,394.92 C951.14,394.41 951.39,394.00 952.00,394.00 C952.61,394.00 952.84,393.55 952.50,393.00 C952.16,392.45 952.39,392.00 953.00,392.00 C953.61,392.00 953.84,391.55 953.50,391.00 C953.16,390.45 953.33,390.00 953.87,390.00 C954.87,390.00 956.57,386.16 956.20,384.75 C956.09,384.34 956.45,384.00 957.00,384.00 C957.55,384.00 957.89,383.44 957.75,382.75 C957.56,381.81 960.23,381.50 968.50,381.50 L 979.50 381.50 L 979.50 442.50 L 971.75 442.79 L 964.00 443.08 L 963.88 427.29 C963.82,418.61 963.48,410.20 963.13,408.61 C962.52,405.80 962.40,405.91 959.14,412.11 C957.30,415.62 953.57,422.92 950.87,428.31 C946.05,437.91 945.88,438.12 942.72,437.81 C940.80,437.63 939.60,437.00 939.75,436.25 C939.89,435.56 939.52,435.00 938.94,435.00 C938.36,435.00 938.14,434.59 938.45,434.08 C938.76,433.57 938.36,432.50 937.56,431.70 C936.75,430.90 936.37,429.96 936.71,429.62 C937.05,429.28 936.78,429.00 936.11,429.00 C935.43,429.00 935.16,428.55 935.50,428.00 C935.84,427.45 935.75,426.98 935.31,426.97 C934.86,426.95 932.47,422.46 930.00,417.00 C927.53,411.54 924.94,407.05 924.25,407.03 C923.30,407.01 923.00,411.24 923.00,424.94 ZM 884.25 392.78 L 900.00 393.00 L 900.00 394.00 L 866.89 394.00 L 866.93 394.64 C866.30,390.81 865.00,392.52 865.00,398.56 L 865.00 404.00 L 894.00 404.00 L 894.00 414.95 L 879.75 415.22 L 865.50 415.50 L 864.92 431.00 L 899.00 431.00 L 899.00 442.00 L 850.00 442.00 L 850.00 412.61 C850.00,386.73 850.19,383.14 851.58,382.61 C852.45,382.27 863.48,382.00 876.08,382.00 L 899.00 382.00 L 899.00 391.95 L 868.50 392.56 ZM 1026.00 419.16 L 1026.00 443.00 L 1009.00 443.00 L 1009.00 432.08 C1009.00,423.52 1008.62,420.50 1007.25,418.09 C1006.29,416.40 1005.16,415.01 1004.75,415.01 C1004.34,415.00 1004.00,414.33 1004.00,413.50 C1004.00,412.67 1003.52,412.00 1002.94,412.00 C1002.36,412.00 1002.15,411.57 1002.48,411.04 C1002.80,410.51 1002.16,409.16 1001.04,408.04 C999.92,406.92 999.00,405.55 999.00,405.00 C999.00,404.45 998.52,404.00 997.94,404.00 C997.36,404.00 997.15,403.57 997.48,403.04 C997.80,402.51 997.19,401.19 996.12,400.12 C995.05,399.05 994.43,397.90 994.75,397.58 C995.07,397.26 994.81,397.00 994.17,397.00 C993.53,397.00 993.00,396.33 993.00,395.50 C993.00,394.67 992.52,394.00 991.94,394.00 C991.36,394.00 991.16,393.55 991.50,392.99 C991.85,392.44 991.43,391.72 990.57,391.39 C989.71,391.06 989.26,390.39 989.56,389.90 C989.87,389.40 989.61,389.00 989.00,389.00 C988.39,389.00 988.16,388.55 988.50,387.99 C988.85,387.44 988.43,386.72 987.57,386.39 C986.71,386.06 986.26,385.39 986.56,384.90 C986.87,384.40 986.64,384.00 986.06,384.00 C985.48,384.00 985.00,383.31 985.00,382.46 C985.00,381.17 986.46,380.97 994.13,381.21 C1003.13,381.50 1003.29,381.55 1004.92,384.50 C1005.82,386.15 1007.69,389.30 1009.06,391.50 C1010.43,393.70 1012.42,397.17 1013.48,399.21 C1015.29,402.69 1015.51,402.81 1017.08,401.21 C1017.99,400.27 1018.55,399.16 1018.31,398.74 C1018.07,398.33 1018.57,397.72 1019.43,397.39 C1020.29,397.06 1020.74,396.39 1020.44,395.90 C1020.13,395.40 1020.39,395.00 1021.00,395.00 C1021.61,395.00 1021.84,394.55 1021.50,394.00 C1021.16,393.45 1021.39,393.00 1022.00,393.00 C1022.61,393.00 1022.87,392.60 1022.56,392.10 C1022.26,391.61 1022.71,390.94 1023.57,390.61 C1024.43,390.28 1024.85,389.56 1024.50,389.01 C1024.16,388.45 1024.39,388.00 1025.00,388.00 C1025.61,388.00 1025.87,387.60 1025.56,387.10 C1025.26,386.61 1025.75,385.93 1026.65,385.58 C1027.55,385.24 1028.00,384.67 1027.66,384.33 C1027.31,383.98 1027.81,383.11 1028.77,382.38 C1030.40,381.14 1049.00,380.30 1049.00,381.47 C1049.00,382.41 1044.95,389.11 1031.75,410.05 ZM 817.25 441.85 C815.42,442.48 813.86,442.93 812.05,443.25 C812.29,443.18 812.44,443.10 812.48,443.02 C812.87,442.41 806.89,441.95 796.29,441.77 L 779.50 441.50 L 779.29 422.93 C779.41,428.45 779.57,431.54 779.71,430.39 C780.25,426.11 783.75,424.24 787.95,425.98 C789.63,426.67 791.00,427.81 791.00,428.50 C791.00,430.11 794.21,430.97 800.25,430.99 C803.09,430.99 805.00,430.55 805.00,429.88 C805.00,429.26 805.88,429.00 807.00,429.29 C810.36,430.17 819.23,426.24 822.75,422.30 C824.54,420.30 826.00,418.00 826.00,417.19 C826.00,416.38 827.46,414.41 829.25,412.81 C831.04,411.21 833.29,409.17 834.25,408.28 C835.69,406.93 836.37,403.74 835.91,400.36 C835.81,399.56 838.16,398.03 839.50,398.03 C840.05,398.03 839.92,398.40 839.22,398.85 C837.72,399.80 838.65,403.00 840.42,403.00 C842.32,403.00 842.46,418.97 840.60,423.42 C836.99,432.06 830.25,437.38 817.25,441.85 ZM 393.45 324.72 C384.80,326.85 378.01,330.24 375.90,333.66 C374.77,335.50 373.40,337.00 372.86,337.00 C372.32,337.00 372.14,337.42 372.45,337.93 C372.79,338.47 369.56,338.78 364.61,338.68 C359.69,338.57 356.43,338.88 356.76,339.42 C357.09,339.96 356.54,340.01 355.41,339.54 C348.01,336.42 345.23,336.03 329.79,335.92 C315.51,335.83 312.82,336.07 308.00,337.91 C304.51,339.23 302.37,339.61 302.15,338.94 C301.94,338.31 301.04,338.56 299.94,339.56 C297.59,341.68 289.59,340.76 287.97,338.19 C287.03,336.70 286.96,336.74 287.40,338.50 C287.89,340.43 288.20,341.87 288.35,342.79 C287.45,338.23 283.75,330.99 281.08,328.57 C278.64,326.36 280.17,324.48 283.12,326.06 C285.77,327.48 302.18,328.66 306.57,327.74 C309.47,327.14 311.24,327.35 313.48,328.55 C315.99,329.89 317.69,330.01 323.49,329.22 C327.33,328.70 331.68,328.62 333.14,329.04 C334.63,329.47 336.22,329.38 336.77,328.83 C337.99,327.61 352.23,326.20 354.67,327.06 C355.68,327.42 357.75,327.35 359.27,326.92 C362.87,325.89 377.39,325.51 378.83,326.40 C379.44,326.77 381.03,326.37 382.37,325.49 C384.65,324.00 386.12,323.61 393.50,322.52 C396.13,322.13 396.06,322.20 393.00,323.13 C391.08,323.71 388.60,324.60 387.50,325.11 C385.89,325.84 386.09,325.93 388.50,325.56 C390.09,325.32 391.79,325.03 393.45,324.72 ZM 411.00 358.00 C408.57,360.43 406.38,360.49 402.75,358.24 C399.30,356.10 399.20,352.88 402.50,350.40 C404.95,348.56 405.00,348.25 405.00,335.16 C405.00,325.84 404.92,323.00 404.19,322.44 C404.93,322.97 405.06,325.72 405.19,334.64 L 405.38 347.50 L 405.94 334.83 C405.97,334.16 406.00,333.51 406.03,332.86 C406.02,333.64 406.02,334.44 406.02,335.25 C406.00,344.77 406.27,347.00 407.43,347.00 C409.29,347.00 413.00,351.75 413.00,354.13 C413.00,355.16 412.10,356.90 411.00,358.00 ZM 768.36 441.50 C767.71,443.20 760.00,443.66 760.00,442.00 C760.00,441.45 759.39,441.00 758.65,441.00 C756.64,441.00 753.47,437.13 754.58,436.02 C755.10,435.50 757.68,434.88 760.32,434.64 C764.55,434.24 765.23,434.45 765.95,436.34 C766.40,437.53 766.57,438.84 766.32,439.25 C766.08,439.66 766.57,440.00 767.41,440.00 C768.36,440.00 768.72,440.57 768.36,441.50 ZM 889.40 417.00 L 867.00 417.00 L 867.00 426.66 L 866.83 423.25 L 866.50 416.50 ZM 781.63 443.05 C784.09,443.99 799.46,444.21 807.54,443.75 C804.53,443.95 800.56,444.00 794.66,444.00 C787.40,444.00 781.01,443.80 778.64,443.54 C778.69,443.41 778.74,443.27 778.80,443.11 C779.02,442.45 779.99,442.43 781.63,443.05 ZM 382.00 328.07 C382.00,327.56 382.79,326.94 383.75,326.69 C385.23,326.30 385.25,326.21 383.87,326.12 C382.98,326.05 381.68,326.67 381.00,327.50 C380.14,328.54 380.10,329.00 380.88,329.00 C381.49,329.00 382.00,328.58 382.00,328.07 ZM 284.73 335.87 C282.38,331.34 279.51,327.87 276.61,326.14 C275.19,325.29 270.73,323.71 265.96,322.33 C270.68,323.66 274.97,325.04 276.20,325.65 C279.17,327.14 282.21,330.81 284.73,335.87 ZM 777.86 443.41 C777.76,443.39 777.69,443.36 777.67,443.33 C777.08,442.75 776.89,428.73 777.00,415.57 C777.00,416.08 777.00,416.60 777.00,417.13 C777.00,432.75 777.26,441.13 777.86,443.41 ZM 777.91 392.55 C777.94,392.50 777.97,392.48 778.00,392.50 C778.58,392.86 779.03,400.57 779.15,412.11 C778.93,400.95 778.48,393.08 777.98,392.58 C777.96,392.56 777.94,392.55 777.91,392.55 ZM 407.07 321.59 C407.39,321.28 411.39,320.09 415.98,318.95 C411.60,320.04 407.66,321.44 406.91,322.16 C406.97,321.83 407.02,321.64 407.07,321.59 Z" fill="rgb(88,114,186)"/>
<path d="M 420.30 440.29 C420.68,439.06 420.61,438.37 420.09,438.20 C419.49,438.00 419.00,436.76 419.00,435.45 C419.00,433.71 418.58,433.22 417.45,433.66 C416.35,434.08 416.81,432.47 419.05,428.06 C420.78,424.65 421.93,421.59 421.60,421.27 C421.27,420.94 421.00,421.25 421.00,421.96 C421.00,422.97 420.69,422.99 419.56,422.05 C417.81,420.60 408.97,418.09 403.64,417.52 C401.52,417.30 398.89,416.30 397.79,415.31 C395.53,413.26 389.19,413.03 379.85,414.66 C374.84,415.53 373.62,416.25 369.09,421.07 C366.28,424.06 362.16,428.37 359.93,430.65 C357.69,432.93 356.31,435.07 356.85,435.41 C357.39,435.74 358.09,435.45 358.41,434.76 C358.72,434.07 358.71,434.62 358.37,436.00 C357.41,439.94 355.28,441.78 352.33,441.21 C351.46,441.05 350.88,441.01 350.55,441.09 C350.65,441.03 350.78,441.00 350.94,441.00 C351.52,441.00 352.00,440.47 352.00,439.82 C352.00,439.18 353.89,434.79 356.20,430.07 C358.51,425.36 360.31,421.16 360.20,420.75 C360.09,420.34 360.48,420.00 361.06,420.00 C361.64,420.00 361.84,419.55 361.50,419.00 C361.16,418.45 361.39,418.00 362.00,418.00 C362.61,418.00 362.84,417.55 362.50,417.00 C362.16,416.45 362.39,416.00 363.00,416.00 C363.61,416.00 363.87,415.60 363.56,415.10 C363.26,414.61 363.71,413.94 364.57,413.61 C365.43,413.28 365.86,412.58 365.54,412.06 C365.21,411.53 365.87,410.61 367.00,410.00 C368.13,409.39 368.79,408.47 368.46,407.94 C368.14,407.42 368.57,406.72 369.43,406.39 C370.29,406.06 370.76,405.42 370.48,404.96 C370.19,404.50 371.56,402.91 373.51,401.43 C375.46,399.94 376.81,398.48 376.51,398.18 C375.93,397.59 381.94,391.00 383.06,391.00 C383.42,391.00 385.41,389.40 387.48,387.45 C389.55,385.50 392.54,383.64 394.12,383.33 C395.71,383.01 397.00,382.33 397.00,381.82 C397.00,380.63 403.81,377.77 404.96,378.47 C405.44,378.77 406.01,378.48 406.22,377.84 C406.79,376.14 424.00,375.31 424.00,376.98 C424.00,377.67 424.67,377.96 425.50,377.64 C426.33,377.32 427.00,377.50 427.00,378.03 C427.00,378.56 427.84,379.00 428.87,379.00 C431.87,379.00 435.86,382.81 437.07,386.82 C438.04,390.08 437.80,391.64 435.16,399.37 C432.09,408.33 431.40,409.73 430.50,408.83 C429.72,408.05 432.07,402.00 433.16,402.00 C433.69,402.00 433.80,401.49 433.42,400.86 C432.96,400.13 432.25,400.57 431.39,402.11 L 430.07 404.50 L 429.93 402.00 C429.85,400.54 429.27,401.78 428.53,405.00 C427.83,408.02 426.76,411.77 426.13,413.32 C425.09,415.91 425.16,416.08 427.00,415.50 C428.10,415.15 429.00,415.29 429.00,415.81 C429.00,416.90 426.39,423.72 425.05,426.12 C424.55,427.01 423.65,429.71 423.04,432.12 C422.49,434.31 421.31,437.81 420.30,440.29 ZM 777.91 392.55 C777.50,392.55 777.23,396.54 777.09,404.23 C777.21,392.61 777.49,382.77 777.89,382.14 C778.59,381.04 782.44,380.84 797.38,381.14 C807.62,381.34 816.00,381.89 816.00,382.36 C816.00,382.83 816.66,382.96 817.47,382.65 C818.28,382.34 819.19,382.50 819.50,383.00 C819.81,383.50 820.72,383.66 821.53,383.35 C822.34,383.04 823.00,383.31 823.00,383.95 C823.00,384.59 823.45,384.84 824.00,384.50 C824.55,384.16 825.00,384.39 825.00,385.00 C825.00,385.61 825.45,385.84 826.00,385.50 C826.55,385.16 827.00,385.39 827.00,386.00 C827.00,386.61 827.45,386.84 828.00,386.50 C828.55,386.16 829.00,386.36 829.00,386.94 C829.00,387.52 829.59,388.00 830.30,388.00 C832.21,388.00 836.86,393.29 839.27,398.04 C837.91,398.20 835.81,399.61 835.91,400.36 C836.37,403.74 835.69,406.93 834.25,408.28 C833.29,409.17 831.04,411.21 829.25,412.81 C827.46,414.41 826.00,416.38 826.00,417.19 C826.00,417.78 825.24,419.13 824.15,420.59 C825.51,418.51 826.32,416.06 826.66,413.18 C827.08,409.69 826.92,408.00 826.17,408.00 C825.56,408.00 825.32,407.33 825.64,406.50 C825.96,405.65 825.66,405.00 824.94,405.00 C824.24,405.00 823.93,404.73 824.26,404.41 C825.16,403.50 818.70,398.19 814.65,396.50 C812.42,395.56 807.85,395.00 802.53,395.00 L 794.00 395.00 L 794.00 428.91 L 801.25 429.26 C802.69,429.33 804.03,429.40 805.17,429.48 C805.06,429.58 805.00,429.72 805.00,429.88 C805.00,430.55 803.09,430.99 800.25,430.99 C794.21,430.97 791.00,430.11 791.00,428.50 C791.00,427.81 789.63,426.67 787.95,425.98 C783.75,424.24 780.25,426.11 779.71,430.39 C779.57,431.54 779.41,428.45 779.29,422.93 L 779.23 417.53 C779.21,415.65 779.18,413.84 779.15,412.11 C779.03,400.57 778.58,392.86 778.00,392.50 C777.97,392.48 777.94,392.50 777.91,392.55 ZM 764.94 442.92 C764.17,443.09 763.32,443.25 762.45,443.36 L 757.41 444.01 L 739.33 425.51 C727.62,413.52 721.89,407.00 723.07,407.00 C724.08,407.00 725.30,407.72 725.79,408.59 C726.52,409.89 727.48,410.02 731.08,409.31 C736.54,408.23 737.26,405.93 733.41,401.90 C731.88,400.31 731.04,399.00 731.54,399.00 C732.04,399.00 729.31,395.72 725.47,391.71 C721.64,387.71 726.25,392.29 735.73,401.91 L 752.96 419.38 L 753.50 380.50 L 761.25 380.21 L 769.00 379.92 L 768.98 410.21 C768.98,424.38 768.73,436.72 768.41,440.46 C768.26,440.17 767.92,440.00 767.41,440.00 C766.57,440.00 766.08,439.66 766.32,439.25 C766.57,438.84 766.40,437.53 765.95,436.34 C765.23,434.45 764.55,434.24 760.32,434.64 C757.68,434.88 755.10,435.50 754.58,436.02 C753.47,437.13 756.64,441.00 758.65,441.00 C759.39,441.00 760.00,441.45 760.00,442.00 C760.00,442.97 762.62,443.22 764.94,442.92 ZM 649.35 431.00 L 644.23 443.50 L 635.28 443.79 C627.78,444.02 626.33,443.82 626.33,442.54 C626.33,441.69 626.73,441.00 627.23,441.00 C627.72,441.00 627.84,440.55 627.50,440.00 C627.16,439.45 627.39,439.00 628.00,439.00 C628.61,439.00 628.84,438.55 628.50,438.00 C628.16,437.45 628.39,437.00 629.00,437.00 C629.61,437.00 629.84,436.55 629.50,436.00 C629.16,435.45 629.39,435.00 630.00,435.00 C630.61,435.00 630.84,434.55 630.50,434.00 C630.16,433.45 630.39,433.00 631.00,433.00 C631.61,433.00 631.84,432.55 631.50,432.00 C631.16,431.45 631.39,431.00 632.00,431.00 C632.61,431.00 632.84,430.55 632.50,430.00 C632.16,429.45 632.39,429.00 633.00,429.00 C633.61,429.00 633.84,428.55 633.50,428.00 C633.16,427.45 633.39,427.00 634.00,427.00 C634.61,427.00 634.84,426.55 634.50,426.00 C634.16,425.45 634.39,425.00 635.00,425.00 C635.61,425.00 635.84,424.55 635.50,424.00 C635.16,423.45 635.39,423.00 636.00,423.00 C636.61,423.00 636.84,422.55 636.50,422.00 C636.16,421.45 636.36,421.00 636.94,421.00 C637.52,421.00 637.95,420.66 637.88,420.25 C637.49,417.80 638.50,417.28 644.02,417.12 C647.32,417.02 651.18,416.50 652.58,415.97 C656.25,414.58 656.88,414.75 656.29,417.00 C655.80,418.87 656.26,419.00 663.43,419.00 C670.17,419.00 671.05,418.79 670.79,417.25 C670.63,416.29 669.92,414.88 669.20,414.13 C667.22,412.04 668.52,411.64 671.33,413.48 C672.94,414.54 675.38,415.01 678.17,414.81 C682.11,414.53 682.50,414.26 682.50,411.84 C682.50,410.38 682.77,408.91 683.09,408.58 C683.73,407.93 701.00,441.01 701.00,442.88 C701.00,443.62 698.11,444.00 692.45,444.00 L 683.90 444.00 L 682.02 439.79 C680.98,437.48 680.36,435.23 680.63,434.79 C680.90,434.36 680.61,434.00 680.00,434.00 C679.39,434.00 679.13,433.60 679.44,433.10 C680.45,431.45 676.92,431.00 663.09,431.00 ZM 323.14 478.75 C321.63,481.56 320.32,481.51 306.34,478.05 C299.35,476.32 290.76,475.04 283.34,474.60 C270.58,473.86 246.52,475.35 241.33,477.21 C238.71,478.15 237.72,478.05 235.55,476.63 C234.11,475.68 233.20,474.48 233.53,473.96 C233.85,473.43 233.66,473.00 233.09,473.00 C232.53,473.00 232.32,472.33 232.64,471.50 C232.95,470.67 232.73,470.00 232.14,470.00 C231.55,470.00 231.32,469.33 231.64,468.50 C231.96,467.65 231.66,467.00 230.94,467.00 C230.24,467.00 229.95,466.72 230.29,466.38 C230.63,466.04 230.23,465.08 229.39,464.25 C228.56,463.42 228.12,462.13 228.41,461.37 C228.70,460.62 228.52,460.00 228.00,460.00 C227.48,460.00 227.32,459.33 227.64,458.50 C227.95,457.67 227.69,457.00 227.05,457.00 C226.41,457.00 226.16,456.55 226.50,456.00 C226.84,455.45 226.60,455.00 225.98,455.00 C225.35,455.00 225.02,454.44 225.25,453.76 C225.47,453.08 225.04,451.89 224.27,451.13 C223.51,450.37 223.12,449.13 223.41,448.37 C223.70,447.62 223.52,447.00 223.00,447.00 C222.48,447.00 222.32,446.33 222.64,445.50 C222.96,444.65 222.66,444.00 221.94,444.00 C221.24,444.00 220.95,443.72 221.29,443.38 C221.63,443.04 221.25,442.11 220.45,441.31 C218.88,439.74 218.53,438.00 219.78,438.00 C220.21,438.00 221.33,438.90 222.27,440.00 C224.40,442.49 231.57,442.92 230.64,440.50 C230.30,439.61 230.63,439.00 231.44,439.00 C232.21,439.00 233.71,441.52 234.85,444.75 C240.92,461.94 243.17,466.61 245.73,467.40 C246.70,467.69 256.50,467.89 267.50,467.83 C282.67,467.75 289.27,468.12 294.82,469.36 C303.48,471.30 307.01,471.41 310.45,469.84 C312.98,468.69 314.03,464.75 312.12,463.57 C311.63,463.27 311.00,461.78 310.71,460.26 C310.42,458.74 309.90,456.38 309.54,455.00 C309.18,453.62 310.02,454.98 311.41,458.00 C312.79,461.02 313.94,464.87 313.96,466.55 C314.03,471.82 318.03,473.78 321.20,470.08 C322.10,469.03 322.71,468.02 322.56,467.83 C321.83,466.97 321.28,459.00 321.95,459.00 C322.37,459.00 323.18,460.46 323.75,462.25 C324.59,464.85 324.82,465.05 324.90,463.25 C324.95,462.01 325.48,461.00 326.06,461.00 C326.64,461.00 326.84,460.55 326.50,460.00 C326.16,459.45 326.41,459.00 327.05,459.00 C327.78,459.00 327.93,459.65 327.46,460.75 C327.05,461.71 326.18,465.65 325.53,469.50 C324.89,473.35 323.81,477.51 323.14,478.75 ZM 539.48 442.57 C537.13,443.55 532.23,443.99 523.78,443.96 C512.61,443.93 510.92,443.67 505.06,441.15 C499.20,438.62 496.11,436.00 498.98,436.00 C499.60,436.00 499.84,435.55 499.50,435.00 C499.16,434.45 499.34,434.00 499.91,434.00 C500.47,434.00 500.68,433.33 500.36,432.50 C500.05,431.67 500.31,431.00 500.95,431.00 C501.59,431.00 501.86,430.58 501.54,430.07 C501.23,429.56 501.43,428.85 502.00,428.50 C502.57,428.15 502.80,427.49 502.52,427.04 C501.59,425.53 504.92,425.06 506.35,426.49 C507.13,427.27 508.04,427.63 508.38,427.29 C508.72,426.95 509.00,427.22 509.00,427.89 C509.00,428.57 509.46,428.84 510.01,428.49 C510.57,428.15 512.42,428.56 514.13,429.42 C515.84,430.27 517.64,430.72 518.13,430.42 C518.61,430.12 520.47,430.38 522.26,430.99 C524.93,431.91 526.38,431.77 530.50,430.17 C533.40,429.05 536.00,427.27 536.68,425.93 L 537.87 423.63 L 538.52 426.22 C539.29,429.28 541.94,430.25 544.47,428.40 C546.47,426.94 553.00,426.80 553.00,428.21 C553.00,431.95 545.28,440.15 539.48,442.57 ZM 720.00 426.00 C720.00,435.90 719.66,443.91 719.25,443.80 C718.84,443.70 715.47,443.45 711.76,443.26 C705.75,442.95 704.97,442.67 704.56,440.70 C704.31,439.49 704.19,425.45 704.30,409.50 L 704.50 380.50 L 708.89 380.19 C711.30,380.01 713.75,380.35 714.34,380.94 C715.09,381.69 714.02,382.00 710.70,382.00 L 706.00 382.00 L 706.00 409.66 L 711.41 409.88 C714.39,410.00 717.11,409.62 717.47,409.05 C719.46,405.83 720.00,409.46 720.00,426.00 ZM 434.59 446.49 C435.07,445.12 435.51,443.87 435.89,442.80 C440.02,431.12 438.76,424.84 432.61,426.38 C431.23,426.73 429.48,428.92 428.53,431.06 C428.51,431.02 428.49,430.98 428.46,430.94 C428.15,430.44 428.89,427.88 430.10,425.26 C431.32,422.64 432.25,420.18 432.17,419.80 C432.09,419.41 433.00,416.93 434.18,414.30 C435.36,411.66 436.26,409.17 436.17,408.77 C436.08,408.36 437.13,405.49 438.51,402.39 C439.88,399.29 441.00,396.21 441.00,395.55 C441.00,393.91 445.29,390.00 447.09,390.00 C449.50,390.00 453.00,392.98 453.00,395.03 C453.00,396.08 450.57,403.59 447.60,411.72 C442.68,425.18 441.47,428.36 438.92,434.50 C438.50,435.51 436.69,440.56 434.59,446.49 ZM 574.00 433.89 L 574.00 444.00 L 558.08 444.00 L 558.50 380.50 L 566.25 380.21 C571.27,380.02 574.00,380.29 574.00,380.99 C574.00,381.70 571.90,381.84 567.64,381.40 C563.27,380.96 561.05,381.11 560.56,381.90 C559.32,383.90 559.94,423.22 561.23,424.78 C562.43,426.22 568.80,426.10 572.25,424.56 C573.85,423.85 574.00,424.64 574.00,433.89 ZM 456.88 441.81 C457.60,438.84 457.32,438.20 456.16,436.99 C454.67,435.42 451.52,433.99 448.34,433.41 C447.92,433.34 447.40,433.70 446.99,434.30 C447.43,433.19 447.58,432.13 447.32,431.71 C447.00,431.20 447.27,430.45 447.92,430.05 C448.57,429.65 449.17,428.35 449.26,427.16 C449.35,425.97 449.81,425.00 450.27,425.00 C450.74,425.00 450.85,424.56 450.52,424.03 C449.59,422.53 455.16,407.77 457.56,405.36 C460.18,402.72 464.46,403.24 466.57,406.46 C467.87,408.45 467.63,409.84 464.00,421.08 C461.80,427.91 459.56,434.40 459.02,435.50 C458.63,436.31 457.77,438.86 456.88,441.81 ZM 220.24 459.23 C220.03,459.21 219.80,459.25 219.53,459.35 C218.72,459.66 217.86,459.59 217.62,459.19 C217.37,458.80 215.15,458.63 212.69,458.83 C208.41,459.17 208.18,459.35 207.80,462.59 C207.76,462.92 207.74,463.24 207.72,463.54 C207.63,463.21 207.37,463.00 207.00,463.00 C206.33,463.00 206.04,462.33 206.36,461.50 C206.68,460.67 206.47,460.00 205.90,460.00 C205.32,460.00 205.14,459.12 205.50,458.00 C205.86,456.88 205.68,456.00 205.10,456.00 C204.53,456.00 204.30,455.38 204.59,454.63 C204.88,453.87 204.34,452.48 203.39,451.53 C202.44,450.59 201.67,448.50 201.67,446.90 C201.67,445.31 201.31,444.00 200.86,444.00 C200.42,444.00 200.32,443.33 200.64,442.50 C200.95,441.67 200.73,441.00 200.14,441.00 C199.55,441.00 199.32,440.33 199.64,439.50 C199.95,438.67 199.76,438.00 199.20,438.00 C198.19,438.00 195.66,432.01 196.38,431.29 C196.59,431.08 198.46,432.05 200.52,433.45 C202.59,434.85 204.78,435.99 205.39,435.98 C207.73,435.95 209.27,434.16 208.74,432.10 C208.43,430.95 208.51,430.00 208.91,430.00 C209.31,430.00 210.89,433.49 212.43,437.75 C213.97,442.01 216.31,448.42 217.62,452.00 C218.32,453.89 219.28,456.54 220.24,459.23 ZM 621.56 424.00 L 621.50 443.50 L 605.50 444.08 L 605.90 432.29 C606.12,425.80 606.50,421.32 606.74,422.32 C607.04,423.57 607.70,423.93 608.84,423.46 C609.75,423.08 611.40,422.56 612.50,422.30 C613.60,422.04 615.94,421.09 617.71,420.20 C620.80,418.65 620.93,418.33 621.27,411.54 C621.47,407.67 621.60,413.27 621.56,424.00 ZM 375.99 333.52 C373.75,337.74 369.41,349.78 368.60,354.21 C368.23,356.26 367.51,358.18 367.01,358.49 C366.51,358.80 366.29,358.07 366.52,356.87 C366.78,355.54 366.18,354.02 364.99,352.99 C363.92,352.06 363.33,351.01 363.68,350.65 C364.04,350.29 363.78,350.00 363.11,350.00 C362.43,350.00 362.16,349.55 362.50,349.00 C362.84,348.45 362.61,348.00 362.00,348.00 C361.39,348.00 361.16,347.55 361.50,347.00 C361.84,346.45 361.64,346.00 361.06,346.00 C360.48,346.00 360.11,345.60 360.25,345.11 C360.58,343.93 355.66,340.08 351.70,338.08 C352.86,338.49 354.06,338.97 355.41,339.54 C356.54,340.01 357.09,339.96 356.76,339.42 C356.43,338.88 359.69,338.57 364.61,338.68 C369.56,338.78 372.79,338.47 372.45,337.93 C372.14,337.42 372.32,337.00 372.86,337.00 C373.40,337.00 374.77,335.50 375.90,333.66 C375.93,333.61 375.96,333.57 375.99,333.52 ZM 261.75 464.26 L 266.50 464.64 L 261.50 464.70 C258.75,464.74 254.81,464.44 252.75,464.04 C248.88,463.29 244.68,460.33 245.53,458.95 C245.80,458.51 245.41,457.55 244.67,456.81 C242.59,454.73 240.84,451.06 241.46,450.06 C241.76,449.57 241.45,448.96 240.76,448.70 C240.01,448.42 240.52,447.81 242.00,447.21 C243.98,446.40 244.77,446.53 245.82,447.84 C246.55,448.75 247.56,449.39 248.07,449.25 C248.58,449.11 248.89,449.39 248.75,449.86 C248.46,450.87 257.97,458.99 259.48,459.03 C260.04,459.05 259.71,459.52 258.75,460.08 C255.41,462.02 256.74,463.87 261.75,464.26 ZM 284.73 335.87 C285.41,337.24 286.05,338.71 286.65,340.27 C288.19,344.31 288.81,345.27 288.39,343.00 C288.38,342.93 288.37,342.86 288.35,342.79 C288.20,341.87 287.89,340.43 287.40,338.50 C286.96,336.74 287.03,336.70 287.97,338.19 C289.59,340.76 297.59,341.68 299.94,339.56 C301.04,338.56 301.94,338.31 302.15,338.94 C302.33,339.50 303.85,339.33 306.38,338.49 C302.95,339.80 300.36,341.35 299.77,342.46 C299.18,343.58 298.40,344.73 298.02,345.00 C297.65,345.27 296.28,348.10 294.98,351.27 C292.57,357.16 290.35,358.39 290.69,353.64 C290.79,352.19 290.42,351.00 289.87,351.00 C289.32,351.00 289.15,350.10 289.50,349.00 C289.85,347.90 289.70,347.00 289.17,347.00 C288.63,347.00 287.66,344.76 287.01,342.03 C285.59,336.14 281.32,329.39 277.31,326.59 C279.97,328.43 282.57,331.71 284.73,335.87 ZM 250.50 310.85 C253.42,309.90 402.93,310.59 403.90,311.56 C403.90,311.57 403.88,311.58 403.81,311.59 C400.14,310.83 305.63,310.29 289.00,310.95 C277.47,311.41 294.16,311.71 337.92,311.82 C354.53,311.87 369.74,311.87 381.36,311.85 C367.21,311.91 347.58,311.94 325.92,311.91 C273.33,311.86 248.49,311.51 250.50,310.85 ZM 406.03 332.86 C406.29,327.85 406.63,323.65 406.91,322.16 C407.09,321.98 407.47,321.76 408.00,321.52 L 408.00 333.65 C408.00,345.19 408.12,346.29 410.27,348.91 C409.27,347.80 408.19,347.00 407.43,347.00 C406.27,347.00 406.00,344.77 406.02,335.25 C406.02,334.44 406.02,333.64 406.03,332.86 ZM 224.49 402.25 C224.89,403.21 224.80,404.00 224.29,404.00 C223.16,404.00 218.98,392.36 218.99,389.25 C219.00,388.01 219.44,387.00 219.97,387.00 C220.50,387.00 220.71,386.42 220.44,385.70 C220.17,384.99 221.08,383.33 222.47,382.03 C225.58,379.11 225.68,380.02 222.80,385.15 C220.66,388.95 220.64,389.24 222.18,394.78 C223.05,397.93 224.09,401.29 224.49,402.25 ZM 699.00 443.00 C700.04,442.33 697.95,442.03 692.25,442.02 C686.13,442.00 684.00,441.66 684.00,440.69 C684.00,439.97 683.32,438.51 682.48,437.44 C681.09,435.66 681.06,435.74 682.17,438.50 C682.83,440.15 684.05,442.06 684.88,442.75 C686.65,444.22 696.83,444.40 699.00,443.00 ZM 374.34 384.74 C372.87,387.63 371.32,390.00 370.89,390.00 C370.47,390.00 371.21,388.09 372.55,385.75 C375.80,380.07 375.89,373.74 372.75,372.22 C371.19,371.47 370.99,371.11 372.10,371.07 C374.35,370.97 377.00,374.22 377.00,377.06 C377.00,378.39 375.80,381.84 374.34,384.74 ZM 505.25 433.30 C506.77,433.86 511.95,433.03 514.00,431.89 C515.22,431.22 515.12,431.03 513.50,430.91 C512.40,430.83 511.12,430.83 510.64,430.92 C510.17,431.00 509.17,430.55 508.41,429.92 C507.65,429.29 506.34,429.04 505.51,429.36 C503.68,430.06 503.51,432.65 505.25,433.30 ZM 621.00 380.92 C621.00,382.42 606.11,382.73 605.54,381.25 C605.18,380.31 607.07,380.00 613.03,380.00 C617.41,380.00 621.00,380.41 621.00,380.92 ZM 669.00 381.00 C669.00,381.57 666.15,382.00 662.44,382.00 C658.32,382.00 656.11,381.63 656.50,381.00 C656.84,380.45 659.79,380.00 663.06,380.00 C666.35,380.00 669.00,380.45 669.00,381.00 ZM 232.00 422.55 C232.00,423.99 230.15,422.62 229.16,420.45 C227.78,417.42 227.74,417.00 228.84,417.00 C229.57,417.00 232.00,421.27 232.00,422.55 ZM 194.77 423.00 C196.02,427.92 195.39,428.18 193.45,423.53 C191.76,419.49 191.70,419.00 192.88,419.00 C193.36,419.00 194.21,420.80 194.77,423.00 ZM 227.00 409.08 C227.00,409.59 226.60,410.00 226.12,410.00 C224.94,410.00 223.97,406.14 224.99,405.51 C225.77,405.03 227.00,407.22 227.00,409.08 ZM 841.19 404.09 C840.98,403.40 840.72,403.00 840.42,403.00 C838.65,403.00 837.72,399.80 839.22,398.85 C839.34,398.76 839.45,398.69 839.54,398.61 C839.60,398.74 839.66,398.87 839.72,399.00 C840.33,400.35 840.82,402.12 841.19,404.09 ZM 550.35 389.03 C550.61,389.29 550.22,390.85 549.49,392.50 C548.46,394.82 548.15,395.05 548.10,393.50 C548.03,391.35 549.59,388.25 550.35,389.03 ZM 547.50 397.00 C547.16,397.55 546.46,398.00 545.94,398.00 C545.42,398.00 545.00,397.55 545.00,397.00 C545.00,396.45 545.70,396.00 546.56,396.00 C547.42,396.00 547.84,396.45 547.50,397.00 ZM 281.92 299.25 C284.59,298.37 287.34,297.46 290.13,296.54 C310.82,289.72 329.28,283.85 331.13,283.50 C331.16,283.50 331.18,283.49 331.20,283.49 C327.97,284.36 304.12,292.02 281.92,299.25 ZM 446.44 435.46 C446.06,436.60 445.66,437.73 445.54,438.00 C443.52,442.50 442.49,444.97 442.01,446.67 C442.31,445.49 442.75,444.13 443.22,443.00 C444.03,441.08 444.84,439.05 445.03,438.50 C445.20,438.00 445.81,436.69 446.44,435.46 ZM 427.10 468.10 C426.46,470.08 424.87,472.71 423.57,473.94 C424.69,472.87 426.45,469.38 428.15,464.96 C427.68,466.33 427.32,467.42 427.10,468.10 ZM 224.78 471.69 C223.13,468.08 221.73,464.41 221.21,461.97 C221.73,463.42 222.21,464.80 222.63,466.00 C223.34,468.02 224.06,469.93 224.78,471.69 ZM 428.00 432.50 C427.83,433.16 427.76,433.76 427.86,434.25 C427.91,434.53 427.74,434.78 427.46,434.91 C427.72,434.76 427.77,434.44 427.54,434.07 C427.23,433.56 427.43,432.85 428.00,432.50 ZM 344.66 336.48 C341.24,336.22 336.40,336.01 331.44,335.94 C337.54,335.99 341.52,336.11 344.66,336.48 ZM 207.72 464.24 C207.75,465.29 207.97,466.00 208.31,466.00 C208.81,466.00 208.97,466.65 208.66,467.44 C208.97,466.65 208.73,466.00 208.14,466.00 C207.55,466.00 207.32,465.33 207.64,464.50 C207.67,464.41 207.70,464.32 207.72,464.24 ZM 242.50 312.32 C243.97,311.70 246.12,310.95 249.00,310.05 C249.38,309.93 250.39,309.60 251.93,309.10 C247.36,310.62 244.07,311.74 242.75,312.23 C242.67,312.26 242.58,312.29 242.50,312.32 ZM 393.45 324.72 C393.58,324.69 393.72,324.67 393.85,324.64 C390.15,325.56 386.58,326.75 383.63,328.03 C386.42,326.76 389.77,325.62 393.45,324.72 ZM 316.62 336.09 C313.15,336.34 311.03,336.86 308.12,337.86 C310.79,336.85 312.83,336.33 316.62,336.09 ZM 811.57 428.81 C812.42,428.50 813.41,428.13 814.45,427.72 C814.75,427.61 815.05,427.49 815.34,427.37 C814.06,427.96 812.77,428.46 811.57,428.81 ZM 334.49 283.56 C336.77,283.89 339.98,284.75 344.79,286.28 C340.20,284.83 336.81,283.93 334.49,283.56 ZM 417.00 449.73 C416.52,451.63 415.42,454.04 414.34,455.68 C415.42,454.04 416.52,451.63 416.99,449.73 C417.45,447.90 418.28,445.37 419.03,443.45 C418.21,445.62 417.41,448.08 417.00,449.73 ZM 411.00 358.00 C411.72,357.28 412.35,356.29 412.70,355.41 C412.43,356.29 411.86,357.14 411.00,358.00 ZM 276.84 326.28 C276.79,326.24 276.74,326.21 276.68,326.18 C275.22,325.31 270.68,323.70 265.86,322.31 L 265.96 322.33 L 265.96 322.33 C270.73,323.71 275.19,325.29 276.61,326.14 C276.69,326.18 276.77,326.23 276.84,326.28 ZM 241.34 312.86 C240.54,313.30 240.00,313.75 240.00,314.04 C240.00,313.72 240.43,313.33 241.34,312.86 ZM 232.37 483.30 C232.72,482.95 233.00,483.19 233.00,483.83 C233.00,483.19 232.71,482.96 232.35,483.32 C232.33,483.34 232.31,483.35 232.29,483.37 C232.32,483.35 232.34,483.32 232.37,483.30 ZM 413.78 319.53 C414.14,319.43 414.50,319.33 414.87,319.23 C414.52,319.33 414.15,319.43 413.78,319.53 Z" fill="rgb(169,118,146)"/>
<path d="M 261.75 464.26 C256.74,463.87 255.41,462.02 258.75,460.08 C259.71,459.52 260.04,459.05 259.48,459.03 C257.97,458.99 248.46,450.87 248.75,449.86 C248.89,449.39 248.58,449.11 248.07,449.25 C248.02,449.26 247.97,449.27 247.91,449.27 C247.46,447.89 246.02,444.77 243.51,439.68 C235.64,423.70 230.00,407.00 229.29,397.58 C228.84,391.64 229.11,389.74 230.96,385.81 C232.17,383.23 233.92,380.88 234.83,380.60 C235.75,380.31 234.30,380.33 231.62,380.62 C226.19,381.22 225.02,381.45 223.54,383.79 C224.79,381.45 225.17,380.34 224.67,380.38 C228.16,377.54 228.65,377.50 239.26,377.50 C247.23,377.50 250.45,377.85 250.75,378.75 C250.98,379.44 251.77,380.00 252.51,380.00 C257.41,380.00 275.16,396.36 284.56,409.53 C297.62,427.83 313.96,459.50 313.99,466.55 C314.01,471.81 318.03,473.78 321.20,470.08 C318.03,473.78 314.03,471.82 313.96,466.55 C313.94,464.87 312.79,461.02 311.41,458.00 C310.02,454.98 309.18,453.62 309.54,455.00 C309.90,456.38 310.42,458.74 310.71,460.26 C311.00,461.78 311.63,463.27 312.12,463.57 C314.03,464.75 312.98,468.69 310.45,469.84 C307.01,471.41 303.48,471.30 294.82,469.36 C289.27,468.12 282.67,467.75 267.50,467.83 C258.97,467.88 251.16,467.77 247.63,467.58 C255.78,467.99 286.02,467.69 285.41,467.08 C285.14,466.81 277.20,466.02 267.76,465.34 C264.78,465.13 262.19,464.91 259.94,464.69 C260.49,464.71 261.01,464.71 261.50,464.70 L 266.50 464.64 ZM 574.00 433.89 C574.00,424.64 573.85,423.85 572.25,424.56 C568.80,426.10 562.43,426.22 561.23,424.78 C559.94,423.22 559.32,383.90 560.56,381.90 C561.05,381.11 563.27,380.96 567.64,381.40 C571.90,381.84 574.00,381.70 574.00,380.99 C574.00,380.29 571.27,380.02 566.25,380.21 L 574.00 379.92 L 574.00 403.05 L 605.50 402.50 L 605.50 381.09 C605.50,381.14 605.52,381.19 605.54,381.25 C606.07,382.63 619.06,382.45 620.81,381.21 L 621.47 405.25 C621.86,419.14 622.02,433.42 621.83,437.00 L 621.50 443.50 L 621.56 424.00 C621.60,413.27 621.47,407.67 621.27,411.54 C620.93,418.33 620.80,418.65 617.71,420.20 C615.94,421.09 613.60,422.04 612.50,422.30 C611.40,422.56 609.75,423.08 608.84,423.46 C607.70,423.93 607.04,423.57 606.74,422.32 C606.50,421.32 606.12,425.80 605.90,432.29 L 605.50 444.07 L 605.50 430.29 L 605.50 416.50 L 574.50 416.50 L 574.22 430.25 L 574.00 441.21 ZM 552.79 427.82 C551.67,426.84 546.25,427.09 544.47,428.40 C541.94,430.25 539.29,429.28 538.52,426.22 L 537.87 423.63 L 537.24 424.85 C537.49,423.80 537.11,422.77 536.04,421.88 C534.97,420.98 529.10,419.01 523.01,417.50 C506.67,413.45 501.49,409.15 501.51,399.68 C501.52,392.39 502.04,390.98 506.00,387.54 C507.92,385.87 509.73,384.24 510.00,383.93 C510.27,383.61 513.23,382.60 516.57,381.68 C527.19,378.74 542.85,380.05 549.55,384.44 L 551.98 386.03 L 550.02 391.18 C549.17,393.44 548.20,395.60 547.62,396.61 C547.60,396.25 547.20,396.00 546.56,396.00 C545.71,396.00 545.01,396.44 545.00,396.99 C544.17,396.74 543.18,396.36 542.19,395.87 C534.39,392.01 519.20,392.42 517.62,396.54 C516.27,400.07 524.71,404.90 532.50,405.05 C537.29,405.14 548.18,411.02 550.75,414.90 C552.72,417.88 553.47,423.41 552.79,427.82 ZM 669.00 381.00 C669.00,380.58 667.51,380.23 665.38,380.08 L 668.71 379.91 L 677.54 396.71 C682.11,405.41 685.87,412.58 688.94,418.47 C685.86,412.74 683.33,408.34 683.09,408.58 C682.77,408.91 682.50,410.38 682.50,411.84 C682.50,414.26 682.11,414.53 678.17,414.81 C675.38,415.01 672.94,414.54 671.33,413.48 C670.02,412.62 669.04,412.25 668.56,412.31 C668.55,412.25 668.53,412.18 668.52,412.12 C667.79,408.30 664.67,402.00 663.52,402.00 C662.65,402.00 657.99,411.60 656.47,416.05 C656.59,414.74 655.64,414.81 652.58,415.97 C651.18,416.50 647.32,417.02 644.02,417.12 C638.50,417.28 637.49,417.80 637.88,420.25 C637.93,420.54 637.73,420.79 637.42,420.92 C637.71,420.77 637.78,420.45 637.55,420.08 C637.24,419.57 637.62,418.52 638.41,417.73 C639.82,416.33 655.78,385.04 656.93,381.53 C657.76,381.83 659.67,382.00 662.44,382.00 C666.15,382.00 669.00,381.57 669.00,381.00 ZM 720.00 426.00 C720.00,409.46 719.46,405.83 717.47,409.05 C717.11,409.62 714.39,410.00 711.41,409.88 L 706.00 409.66 L 706.00 382.00 L 710.70 382.00 C714.02,382.00 715.09,381.69 714.34,380.94 C713.85,380.45 712.10,380.14 710.14,380.14 L 714.18 379.88 L 733.57 399.53 L 752.96 419.18 L 753.50 380.50 L 752.96 419.38 L 735.73 401.91 C726.25,392.29 721.64,387.71 725.47,391.71 C729.31,395.72 732.04,399.00 731.54,399.00 C731.04,399.00 731.88,400.31 733.41,401.90 C737.26,405.93 736.54,408.23 731.08,409.31 C727.48,410.02 726.52,409.89 725.79,408.59 C725.30,407.72 724.08,407.00 723.07,407.00 C721.89,407.00 727.62,413.52 739.33,425.51 L 750.35 436.79 L 739.00 425.27 L 720.50 406.50 L 720.23 425.25 C720.13,431.93 719.91,437.79 719.65,441.06 C719.86,437.90 720.00,432.34 720.00,426.00 ZM 217.33 400.23 C218.58,403.73 225.59,421.72 233.19,440.98 C232.51,439.76 231.86,439.00 231.44,439.00 C230.63,439.00 230.30,439.61 230.64,440.50 C231.57,442.92 224.40,442.49 222.27,440.00 C221.33,438.90 220.21,438.00 219.78,438.00 C219.65,438.00 219.55,438.02 219.45,438.05 C219.47,436.94 218.65,434.20 217.46,431.50 C216.11,428.44 215.00,425.28 215.00,424.47 C215.00,423.66 214.48,423.00 213.83,423.00 C213.19,423.00 212.94,422.73 213.28,422.39 C213.61,422.05 213.03,420.18 211.98,418.23 C210.94,416.28 210.31,414.30 210.60,413.84 C210.88,413.38 210.74,413.00 210.27,413.00 C209.81,413.00 209.35,412.03 209.26,410.84 C209.17,409.65 208.52,408.31 207.80,407.86 C207.09,407.40 206.89,407.02 207.37,407.02 C207.85,407.01 207.82,406.44 207.30,405.75 C206.78,405.06 206.24,402.64 206.11,400.37 C205.88,396.55 206.10,396.16 209.03,395.14 C213.30,393.65 215.44,394.97 217.33,400.23 ZM 194.77 423.00 C194.21,420.80 193.36,419.00 192.88,419.00 C192.74,419.00 192.62,419.01 192.51,419.03 C192.66,418.19 192.42,416.61 191.92,415.28 C190.30,411.03 192.42,408.00 197.00,408.00 C200.82,408.00 201.01,408.21 203.97,415.50 C205.18,418.49 207.95,425.80 211.06,434.18 C210.04,431.70 209.19,430.00 208.91,430.00 C208.51,430.00 208.43,430.95 208.74,432.10 C209.27,434.16 207.73,435.95 205.39,435.98 C204.78,435.99 202.59,434.85 200.52,433.45 C198.54,432.11 196.75,431.16 196.41,431.27 C196.44,431.15 196.47,431.04 196.52,430.96 C196.75,430.60 196.19,428.88 195.22,426.85 C195.58,426.99 195.46,425.70 194.77,423.00 ZM 505.25 433.30 C503.51,432.65 503.68,430.06 505.51,429.36 C506.34,429.04 507.65,429.29 508.41,429.92 C509.17,430.55 510.17,431.00 510.64,430.92 C511.12,430.83 512.40,430.83 513.50,430.91 C515.12,431.03 515.22,431.22 514.00,431.89 C511.95,433.03 506.77,433.86 505.25,433.30 ZM 550.35 389.03 C549.59,388.25 548.03,391.35 548.10,393.50 C548.15,395.05 548.46,394.82 549.49,392.50 C550.22,390.85 550.61,389.29 550.35,389.03 ZM 319.10 433.28 C319.67,434.26 319.98,435.84 319.79,436.78 C319.47,438.35 319.38,438.34 318.72,436.67 C318.32,435.66 318.01,434.09 318.03,433.17 C318.06,431.68 318.17,431.69 319.10,433.28 ZM 358.00 380.44 C358.00,381.23 357.55,382.16 357.00,382.50 C356.45,382.84 356.00,382.19 356.00,381.06 C356.00,379.93 356.45,379.00 357.00,379.00 C357.55,379.00 358.00,379.65 358.00,380.44 ZM 620.79 380.71 C619.97,380.31 616.80,380.00 613.03,380.00 C607.63,380.00 605.57,380.26 605.50,381.00 L 605.50 380.00 L 620.77 380.00 ZM 246.00 467.45 C245.88,467.43 245.79,467.41 245.73,467.40 C244.44,467.00 243.23,465.62 241.57,462.15 C243.07,464.91 244.71,467.08 245.73,467.39 C245.80,467.41 245.89,467.43 246.00,467.45 ZM 544.43 439.53 C547.18,437.38 549.78,434.63 551.38,432.20 C550.07,434.47 547.30,437.31 544.43,439.53 ZM 249.17 462.79 C247.71,462.25 246.78,461.59 246.21,460.76 C246.88,461.45 247.94,462.18 249.17,462.79 ZM 245.49 459.03 C245.46,458.88 245.43,458.72 245.41,458.56 C245.34,458.09 245.19,457.60 245.00,457.18 C245.52,457.85 245.76,458.58 245.53,458.95 C245.52,458.97 245.50,459.00 245.49,459.03 ZM 764.94 442.92 L 764.99 442.91 C764.22,443.09 763.37,443.25 762.50,443.37 L 757.50 444.05 L 757.46 444.01 L 762.45 443.36 C763.32,443.25 764.17,443.09 764.94,442.92 ZM 199.20 438.00 C198.62,438.00 197.77,436.55 197.16,434.95 C197.82,436.53 198.70,438.00 199.20,438.00 ZM 669.15 414.07 C669.46,414.40 669.72,414.76 669.95,415.16 C669.88,415.06 669.80,414.98 669.73,414.93 C669.54,414.79 669.34,414.48 669.15,414.07 ZM 236.73 450.00 C237.49,451.99 238.16,453.80 238.58,454.99 C238.01,453.50 237.40,451.84 236.73,450.00 ZM 700.28 443.43 C699.19,443.83 696.75,444.00 692.45,444.00 C696.47,444.00 699.09,443.81 700.28,443.43 ZM 220.56 386.31 C220.55,386.72 220.34,387.00 219.97,387.00 C219.44,387.00 219.00,388.01 218.99,389.25 C219.00,388.01 219.40,387.00 219.89,387.00 C220.19,387.00 220.43,386.73 220.56,386.31 ZM 241.68 452.16 C242.06,453.17 242.71,454.37 243.49,455.43 C242.78,454.59 242.08,453.29 241.68,452.16 ZM 221.61 387.40 C220.82,389.28 220.99,390.46 222.02,394.22 C220.99,390.46 220.78,389.30 221.61,387.40 ZM 719.25 443.80 C719.24,443.81 719.23,443.81 719.23,443.80 C718.98,443.74 717.57,443.62 715.65,443.49 C717.57,443.61 718.98,443.74 719.25,443.80 C719.38,443.75 719.52,442.76 719.65,441.06 C719.54,442.83 719.40,443.84 719.25,443.80 ZM 700.90 442.46 C700.74,441.95 700.36,441.05 699.82,439.87 C700.44,441.19 700.78,442.02 700.90,442.46 ZM 220.27 441.12 C220.33,441.18 220.39,441.25 220.45,441.31 C221.25,442.11 221.63,443.04 221.29,443.38 C221.63,443.04 221.22,442.08 220.39,441.25 C220.35,441.21 220.31,441.17 220.27,441.12 Z" fill="rgb(217,113,104)"/>
<path d="M 374.34 384.74 L 374.37 384.66 C372.65,388.40 370.59,392.00 369.83,392.00 C369.37,392.00 369.00,392.47 369.00,393.04 C369.00,394.02 368.22,395.15 365.25,398.46 C364.56,399.23 364.00,400.11 364.00,400.43 C364.00,400.74 362.20,402.85 360.00,405.12 C357.80,407.39 356.00,409.81 356.00,410.51 C356.00,411.21 355.33,412.05 354.50,412.36 C353.67,412.68 353.00,413.63 353.00,414.47 C353.00,415.31 352.61,416.00 352.13,416.00 C350.89,416.00 342.30,429.05 339.82,434.72 C338.66,437.35 337.42,439.73 337.05,440.00 C335.80,440.94 328.69,455.48 327.76,459.00 C327.73,459.11 327.70,459.22 327.67,459.35 C327.57,459.12 327.36,459.00 327.05,459.00 C326.41,459.00 326.16,459.45 326.50,460.00 C326.84,460.55 326.64,461.00 326.06,461.00 C325.48,461.00 324.95,462.01 324.90,463.25 C324.82,465.05 324.59,464.85 323.75,462.25 C323.18,460.46 322.37,459.00 321.95,459.00 C321.66,459.00 321.60,460.47 321.68,462.22 C321.67,462.15 321.66,462.07 321.66,462.00 C321.35,458.98 320.48,454.48 319.72,452.00 C317.68,445.33 312.86,435.00 311.80,435.00 C311.30,435.00 311.16,434.55 311.50,434.00 C311.84,433.45 311.61,433.00 311.00,433.00 C310.39,433.00 310.14,432.59 310.45,432.08 C310.76,431.57 310.36,430.50 309.56,429.70 C308.75,428.90 308.37,427.96 308.71,427.62 C309.05,427.28 308.78,427.00 308.11,427.00 C307.43,427.00 307.16,426.55 307.50,426.00 C307.84,425.45 307.61,425.00 307.00,425.00 C306.39,425.00 306.15,424.57 306.48,424.04 C306.80,423.51 306.19,422.19 305.12,421.12 C304.05,420.05 303.42,418.91 303.73,418.61 C304.03,418.30 303.55,417.76 302.65,417.42 C301.75,417.07 301.24,416.42 301.52,415.96 C301.80,415.51 301.13,414.50 300.02,413.73 C298.92,412.95 298.30,412.03 298.65,411.68 C299.00,411.33 298.55,410.76 297.65,410.42 C296.75,410.07 296.22,409.46 296.47,409.05 C296.72,408.64 295.28,406.55 293.26,404.41 C291.25,402.26 289.57,400.18 289.55,399.79 C289.52,399.40 288.64,398.45 287.58,397.68 C286.52,396.91 285.56,395.60 285.44,394.77 C285.16,392.91 282.02,388.00 281.10,388.00 C280.73,388.00 280.36,387.21 280.28,386.25 C280.20,385.29 279.71,382.59 279.20,380.25 C278.63,377.65 278.63,376.00 279.19,376.00 C279.70,376.00 279.87,375.60 279.57,375.11 C278.64,373.61 281.67,371.88 284.66,372.20 C288.02,372.56 290.99,375.46 291.01,378.40 C291.03,381.55 295.98,390.69 302.19,399.06 C305.22,403.15 309.42,409.32 311.51,412.77 C315.81,419.87 317.11,420.20 314.57,413.55 C313.63,411.08 312.93,408.76 313.01,408.39 C313.10,408.02 312.77,407.45 312.28,407.11 C310.59,405.94 305.77,399.00 306.63,398.97 C307.11,398.95 306.70,398.48 305.73,397.91 C304.75,397.34 304.22,396.45 304.54,395.93 C304.86,395.41 304.43,394.72 303.57,394.39 C302.71,394.06 302.24,393.42 302.53,392.96 C302.81,392.50 302.25,391.68 301.27,391.13 C300.30,390.59 299.62,389.88 299.77,389.57 C300.20,388.64 298.84,384.00 298.14,384.00 C297.60,384.00 297.53,373.51 298.06,372.00 C298.16,371.73 298.18,371.16 298.12,370.75 C298.05,370.34 298.44,370.00 298.97,370.00 C299.50,370.00 299.69,369.37 299.40,368.60 C298.51,366.28 310.46,354.80 314.22,354.36 C315.96,354.16 317.64,353.61 317.94,353.14 C319.01,351.51 336.24,353.55 341.78,355.97 C350.94,359.96 357.98,369.64 357.99,378.27 C358.00,378.58 357.93,379.03 357.80,379.58 C357.62,379.23 357.33,379.00 357.00,379.00 C356.45,379.00 356.00,379.93 356.00,381.06 C356.00,382.14 356.41,382.78 356.92,382.54 C355.30,387.35 352.27,394.19 351.16,394.96 C350.74,395.26 349.07,397.30 347.45,399.50 C345.84,401.70 344.23,403.73 343.89,404.00 C343.55,404.27 341.89,407.65 340.22,411.50 C336.62,419.76 335.21,426.00 336.95,426.00 C337.59,426.00 337.89,425.63 337.61,425.18 C336.99,424.18 343.01,412.24 347.27,406.01 C355.76,393.59 358.34,389.46 360.62,384.69 C361.99,381.84 363.56,378.67 364.12,377.65 C364.68,376.64 364.92,375.59 364.65,375.32 C364.38,375.05 365.07,373.79 366.18,372.51 C369.77,368.38 377.00,371.38 377.00,377.01 L 377.00 377.03 C376.98,374.19 374.34,370.97 372.10,371.07 C370.99,371.11 371.19,371.47 372.75,372.22 C375.89,373.74 375.80,380.07 372.55,385.75 C371.21,388.09 370.47,390.00 370.89,390.00 C371.32,390.00 372.87,387.63 374.34,384.74 ZM 289.00 310.95 C305.63,310.29 400.14,310.83 403.81,311.59 C402.89,311.70 394.48,311.79 381.36,311.85 C369.74,311.87 354.53,311.87 337.92,311.82 C294.16,311.71 277.47,311.41 289.00,310.95 ZM 221.61 387.40 C221.89,386.77 222.28,386.06 222.80,385.15 C223.07,384.66 223.32,384.21 223.54,383.79 C225.02,381.45 226.19,381.22 231.62,380.62 C234.30,380.33 235.75,380.31 234.83,380.60 C233.92,380.88 232.17,383.23 230.96,385.81 C229.13,389.69 228.85,391.59 229.27,397.34 C229.22,396.91 229.18,396.48 229.15,396.05 L 228.50 387.50 L 225.05 387.78 C223.37,387.92 221.79,388.21 221.25,388.47 C221.33,388.12 221.46,387.78 221.61,387.40 ZM 246.04 448.10 C245.97,448.02 245.89,447.93 245.82,447.84 C244.77,446.53 243.98,446.40 242.00,447.21 C241.27,447.50 240.78,447.80 240.56,448.06 C240.48,447.75 240.43,447.39 240.43,447.00 C240.43,444.35 244.63,444.24 245.46,446.87 C245.57,447.23 245.78,447.66 246.04,448.10 ZM 319.10 433.28 C318.17,431.69 318.06,431.68 318.03,433.17 C318.01,434.09 318.32,435.66 318.72,436.67 C319.38,438.34 319.47,438.35 319.79,436.78 C319.98,435.84 319.67,434.26 319.10,433.28 ZM 325.59 469.50 C324.91,473.35 323.81,477.51 323.14,478.75 C323.81,477.51 324.89,473.35 325.53,469.50 C325.99,466.78 326.56,464.02 327.00,462.29 C326.53,464.46 326.01,467.15 325.59,469.50 ZM 232.19 411.39 C234.33,418.58 237.52,426.88 241.37,435.20 C237.41,426.74 234.30,418.64 232.19,411.39 ZM 245.00 442.73 C246.60,446.05 247.56,448.19 247.91,449.27 C247.88,449.27 247.84,449.27 247.81,449.26 C247.36,447.95 246.37,445.64 245.00,442.73 ZM 222.29 395.20 C222.25,395.06 222.21,394.92 222.18,394.78 C222.12,394.59 222.07,394.40 222.02,394.22 L 222.02 394.22 C221.45,392.14 221.14,390.85 221.12,389.80 C221.29,391.04 221.74,393.07 222.29,395.20 ZM 240.86 448.74 C241.01,448.81 241.15,448.90 241.25,449.00 C241.11,448.99 240.98,448.90 240.86,448.74 ZM 322.45 467.65 C322.48,467.73 322.52,467.79 322.56,467.83 C322.71,468.02 322.10,469.03 321.20,470.08 C322.10,469.03 322.69,468.02 322.52,467.83 C322.50,467.81 322.48,467.75 322.45,467.65 ZM 242.16 453.30 C242.54,454.09 243.01,454.86 243.49,455.43 C243.51,455.45 243.52,455.46 243.53,455.48 C243.03,454.91 242.54,454.12 242.16,453.30 Z" fill="rgb(250,213,95)"/>
<path d="M 0.00 418.00 L 0.00 0.00 L 627.00 0.00 L 1254.00 0.00 L 1254.00 418.00 L 1254.00 836.00 L 627.00 836.00 L 0.00 836.00 L 0.00 418.00 ZM 338.72 502.45 C341.35,501.60 344.40,500.52 345.50,500.05 C359.65,494.05 383.78,491.15 405.12,492.89 C418.75,494.00 421.56,494.41 433.48,497.04 C438.03,498.05 438.61,497.97 440.12,496.10 C441.03,494.98 442.54,490.79 443.48,486.78 C444.42,482.78 445.82,478.08 446.59,476.35 C447.37,474.62 448.02,472.37 448.04,471.35 C448.07,470.33 448.76,467.70 449.59,465.50 C451.37,460.77 453.08,455.24 455.95,445.00 C457.10,440.88 458.49,436.60 459.02,435.50 C459.56,434.40 461.80,427.91 464.00,421.08 C467.63,409.84 467.87,408.45 466.57,406.46 C464.46,403.24 460.18,402.72 457.56,405.36 C455.16,407.77 449.59,422.53 450.52,424.03 C450.85,424.56 450.74,425.00 450.27,425.00 C449.81,425.00 449.35,425.97 449.26,427.16 C449.17,428.35 448.57,429.65 447.92,430.05 C447.27,430.45 447.00,431.20 447.32,431.71 C447.64,432.22 447.33,433.74 446.64,435.07 C445.94,436.41 445.22,437.95 445.03,438.50 C444.84,439.05 444.03,441.08 443.22,443.00 C442.42,444.92 441.70,447.51 441.63,448.75 C441.56,449.99 441.18,451.00 440.78,451.00 C440.39,451.00 440.32,451.67 440.64,452.50 C440.95,453.33 440.72,454.00 440.11,454.00 C439.50,454.00 439.10,454.34 439.21,454.75 C439.33,455.16 438.87,456.49 438.20,457.71 C437.52,458.92 437.03,460.27 437.10,460.71 C437.18,461.14 437.15,461.73 437.04,462.00 C436.94,462.27 436.65,463.61 436.40,464.96 C436.15,466.31 435.47,467.71 434.88,468.08 C434.29,468.44 433.74,469.92 433.65,471.37 C433.57,472.82 433.14,474.00 432.69,474.00 C432.25,474.00 432.16,474.45 432.50,475.00 C432.84,475.55 432.57,476.00 431.89,476.00 C431.22,476.00 430.96,476.29 431.32,476.65 C431.68,477.01 430.60,478.62 428.93,480.22 L 425.88 483.13 L 416.69 482.42 C397.49,480.93 366.00,482.01 366.00,484.17 C366.00,484.70 365.10,484.85 364.00,484.50 C362.90,484.15 362.00,484.23 362.00,484.68 C362.00,485.13 360.43,485.61 358.51,485.75 C356.59,485.89 350.40,488.10 344.76,490.67 C335.14,495.05 328.00,496.80 328.00,494.77 C328.00,494.28 327.55,494.16 327.00,494.50 C326.45,494.84 326.00,494.64 326.00,494.06 C326.00,493.48 325.10,493.00 324.00,493.00 C322.90,493.00 322.00,492.63 322.00,492.18 C322.00,491.02 309.07,485.84 307.93,486.54 C307.42,486.86 307.00,486.61 307.00,485.99 C307.00,485.34 306.20,485.12 305.08,485.47 C304.03,485.81 302.91,485.66 302.60,485.15 C302.02,484.22 297.54,483.15 291.00,482.37 C284.92,481.64 254.76,481.71 248.25,482.47 C244.81,482.87 241.75,483.60 241.44,484.10 C240.60,485.45 233.00,485.21 233.00,483.83 C233.00,483.19 232.72,482.95 232.37,483.30 C230.85,484.81 226.50,477.08 222.63,466.00 C218.25,453.45 206.82,422.53 203.97,415.50 C201.01,408.21 200.82,408.00 197.00,408.00 C192.42,408.00 190.30,411.03 191.92,415.28 C192.48,416.77 192.72,418.57 192.44,419.29 C192.17,420.01 193.09,422.74 194.48,425.37 C195.88,428.00 196.80,430.52 196.52,430.96 C195.79,432.15 198.02,438.00 199.20,438.00 C199.76,438.00 199.95,438.67 199.64,439.50 C199.32,440.33 199.55,441.00 200.14,441.00 C200.73,441.00 200.95,441.67 200.64,442.50 C200.32,443.33 200.42,444.00 200.86,444.00 C201.31,444.00 201.67,445.31 201.67,446.90 C201.67,448.50 202.44,450.59 203.39,451.53 C204.34,452.48 204.88,453.87 204.59,454.63 C204.30,455.38 204.53,456.00 205.10,456.00 C205.68,456.00 205.86,456.88 205.50,458.00 C205.14,459.12 205.32,460.00 205.90,460.00 C206.47,460.00 206.68,460.67 206.36,461.50 C206.04,462.33 206.33,463.00 207.00,463.00 C207.67,463.00 207.96,463.67 207.64,464.50 C207.32,465.33 207.55,466.00 208.14,466.00 C208.73,466.00 208.97,466.65 208.66,467.44 C208.36,468.22 208.58,469.03 209.15,469.22 C209.72,469.41 210.26,470.78 210.34,472.28 C210.43,473.78 210.82,475.00 211.22,475.00 C211.61,475.00 211.68,475.67 211.36,476.50 C211.04,477.33 211.33,478.00 212.00,478.00 C212.67,478.00 212.97,478.65 212.66,479.44 C212.36,480.22 212.50,481.01 212.96,481.19 C213.43,481.36 214.09,483.25 214.43,485.40 C215.45,491.93 216.25,494.35 218.02,496.25 C219.55,497.89 220.42,497.96 227.10,496.98 C231.17,496.39 235.40,495.51 236.50,495.04 C237.60,494.57 244.12,493.69 251.00,493.08 C277.99,490.70 296.32,492.68 318.50,500.38 C329.98,504.36 332.13,504.58 338.72,502.45 ZM 323.14 478.75 C323.81,477.51 324.91,473.35 325.59,469.50 C326.27,465.65 327.25,460.92 327.76,459.00 C328.69,455.48 335.80,440.94 337.05,440.00 C337.42,439.73 338.66,437.35 339.82,434.72 C342.30,429.05 350.89,416.00 352.13,416.00 C352.61,416.00 353.00,415.31 353.00,414.47 C353.00,413.63 353.67,412.68 354.50,412.36 C355.33,412.05 356.00,411.21 356.00,410.51 C356.00,409.81 357.80,407.39 360.00,405.12 C362.20,402.85 364.00,400.74 364.00,400.43 C364.00,400.11 364.56,399.23 365.25,398.46 C368.22,395.15 369.00,394.02 369.00,393.04 C369.00,392.47 369.37,392.00 369.83,392.00 C371.22,392.00 377.00,379.91 377.00,377.01 C377.00,371.38 369.77,368.38 366.18,372.51 C365.07,373.79 364.38,375.05 364.65,375.32 C364.92,375.59 364.68,376.64 364.12,377.65 C363.56,378.67 361.99,381.84 360.62,384.69 C358.34,389.46 355.76,393.59 347.27,406.01 C343.01,412.24 336.99,424.18 337.61,425.18 C337.89,425.63 337.59,426.00 336.95,426.00 C335.21,426.00 336.62,419.76 340.22,411.50 C341.89,407.65 343.55,404.27 343.89,404.00 C344.23,403.73 345.84,401.70 347.45,399.50 C349.07,397.30 350.74,395.26 351.16,394.96 C352.71,393.88 358.00,380.96 357.99,378.27 C357.98,369.64 350.94,359.96 341.78,355.97 C336.24,353.55 319.01,351.51 317.94,353.14 C317.64,353.61 315.96,354.16 314.22,354.36 C310.46,354.80 298.51,366.28 299.40,368.60 C299.69,369.37 299.50,370.00 298.97,370.00 C298.44,370.00 298.05,370.34 298.12,370.75 C298.18,371.16 298.16,371.73 298.06,372.00 C297.53,373.51 297.60,384.00 298.14,384.00 C298.84,384.00 300.20,388.64 299.77,389.57 C299.62,389.88 300.30,390.59 301.27,391.13 C302.25,391.68 302.81,392.50 302.53,392.96 C302.24,393.42 302.71,394.06 303.57,394.39 C304.43,394.72 304.86,395.41 304.54,395.93 C304.22,396.45 304.75,397.34 305.73,397.91 C306.70,398.48 307.11,398.95 306.63,398.97 C305.77,399.00 310.59,405.94 312.28,407.11 C312.77,407.45 313.10,408.02 313.01,408.39 C312.93,408.76 313.63,411.08 314.57,413.55 C317.11,420.20 315.81,419.87 311.51,412.77 C309.42,409.32 305.22,403.15 302.19,399.06 C295.98,390.69 291.03,381.55 291.01,378.40 C290.99,375.46 288.02,372.56 284.66,372.20 C281.67,371.88 278.64,373.61 279.57,375.11 C279.87,375.60 279.70,376.00 279.19,376.00 C278.63,376.00 278.63,377.65 279.20,380.25 C279.71,382.59 280.20,385.29 280.28,386.25 C280.36,387.21 280.73,388.00 281.10,388.00 C282.02,388.00 285.16,392.91 285.44,394.77 C285.56,395.60 286.52,396.91 287.58,397.68 C288.64,398.45 289.52,399.40 289.55,399.79 C289.57,400.18 291.25,402.26 293.26,404.41 C295.28,406.55 296.72,408.64 296.47,409.05 C296.22,409.46 296.75,410.07 297.65,410.42 C298.55,410.76 299.00,411.33 298.65,411.68 C298.30,412.03 298.92,412.95 300.02,413.73 C301.13,414.50 301.80,415.51 301.52,415.96 C301.24,416.42 301.75,417.07 302.65,417.42 C303.55,417.76 304.03,418.30 303.73,418.61 C303.42,418.91 304.05,420.05 305.12,421.12 C306.19,422.19 306.80,423.51 306.48,424.04 C306.15,424.57 306.39,425.00 307.00,425.00 C307.61,425.00 307.84,425.45 307.50,426.00 C307.16,426.55 307.43,427.00 308.11,427.00 C308.78,427.00 309.05,427.28 308.71,427.62 C308.37,427.96 308.75,428.90 309.56,429.70 C310.36,430.50 310.76,431.57 310.45,432.08 C310.14,432.59 310.39,433.00 311.00,433.00 C311.61,433.00 311.84,433.45 311.50,434.00 C311.16,434.55 311.30,435.00 311.80,435.00 C312.86,435.00 317.68,445.33 319.72,452.00 C320.48,454.48 321.35,458.98 321.66,462.00 C321.96,465.02 322.35,467.65 322.52,467.83 C322.69,468.02 322.10,469.03 321.20,470.08 C318.03,473.78 314.01,471.81 313.99,466.55 C313.96,459.50 297.62,427.83 284.56,409.53 C275.16,396.36 257.41,380.00 252.51,380.00 C251.77,380.00 250.98,379.44 250.75,378.75 C250.45,377.85 247.23,377.50 239.26,377.50 C228.33,377.50 228.14,377.54 224.35,380.64 C222.23,382.37 220.56,384.51 220.64,385.39 C220.72,386.28 220.38,387.00 219.89,387.00 C219.40,387.00 219.00,388.01 218.99,389.25 C218.98,392.36 223.16,404.00 224.29,404.00 C224.80,404.00 224.89,403.21 224.49,402.25 C222.99,398.64 220.61,389.05 221.10,388.57 C221.38,388.29 223.16,387.93 225.05,387.78 L 228.50 387.50 L 229.15 396.05 C229.99,407.03 235.13,422.67 243.39,439.40 C246.80,446.29 248.79,451.22 247.82,450.34 C246.85,449.46 245.78,447.90 245.46,446.87 C244.63,444.24 240.43,444.35 240.43,447.00 C240.43,448.10 240.81,449.00 241.27,449.00 C241.74,449.00 241.85,449.44 241.51,449.98 C240.87,451.02 242.67,455.09 244.22,456.10 C244.72,456.43 245.26,457.54 245.41,458.56 C246.05,462.92 249.73,464.04 267.76,465.34 C277.20,466.02 285.14,466.81 285.41,467.08 C286.10,467.76 247.93,468.07 245.73,467.39 C244.00,466.87 240.52,461.04 238.94,456.03 C238.50,454.64 236.80,450.12 235.17,446.00 C226.84,424.95 218.69,404.03 217.33,400.23 C215.44,394.97 213.30,393.65 209.03,395.14 C206.10,396.16 205.88,396.55 206.11,400.37 C206.24,402.64 206.78,405.06 207.30,405.75 C207.82,406.44 207.85,407.01 207.37,407.02 C206.89,407.02 207.09,407.40 207.80,407.86 C208.52,408.31 209.17,409.65 209.26,410.84 C209.35,412.03 209.81,413.00 210.27,413.00 C210.74,413.00 210.88,413.38 210.60,413.84 C210.31,414.30 210.94,416.28 211.98,418.23 C213.03,420.18 213.61,422.05 213.28,422.39 C212.94,422.73 213.19,423.00 213.83,423.00 C214.48,423.00 215.00,423.66 215.00,424.47 C215.00,425.28 216.11,428.44 217.46,431.50 C218.81,434.56 219.68,437.66 219.40,438.40 C219.12,439.14 219.56,440.42 220.39,441.25 C221.23,442.08 221.63,443.04 221.29,443.38 C220.95,443.72 221.24,444.00 221.94,444.00 C222.66,444.00 222.96,444.65 222.64,445.50 C222.32,446.33 222.48,447.00 223.00,447.00 C223.52,447.00 223.70,447.62 223.41,448.37 C223.12,449.13 223.51,450.37 224.27,451.13 C225.04,451.89 225.47,453.08 225.25,453.76 C225.02,454.44 225.35,455.00 225.98,455.00 C226.60,455.00 226.84,455.45 226.50,456.00 C226.16,456.55 226.41,457.00 227.05,457.00 C227.69,457.00 227.95,457.67 227.64,458.50 C227.32,459.33 227.48,460.00 228.00,460.00 C228.52,460.00 228.70,460.62 228.41,461.37 C228.12,462.13 228.56,463.42 229.39,464.25 C230.23,465.08 230.63,466.04 230.29,466.38 C229.95,466.72 230.24,467.00 230.94,467.00 C231.66,467.00 231.96,467.65 231.64,468.50 C231.32,469.33 231.55,470.00 232.14,470.00 C232.73,470.00 232.95,470.67 232.64,471.50 C232.32,472.33 232.53,473.00 233.09,473.00 C233.66,473.00 233.85,473.43 233.53,473.96 C233.20,474.48 234.11,475.68 235.55,476.63 C237.72,478.05 238.71,478.15 241.33,477.21 C246.52,475.35 270.58,473.86 283.34,474.60 C290.76,475.04 299.35,476.32 306.34,478.05 C320.32,481.51 321.63,481.56 323.14,478.75 ZM 349.50 478.94 C353.35,477.84 359.36,476.50 362.87,475.96 C366.37,475.42 369.62,474.74 370.09,474.44 C371.65,473.48 402.94,473.95 412.18,475.07 C420.88,476.13 421.27,476.09 423.57,473.94 C424.87,472.71 426.46,470.08 427.10,468.10 C428.70,463.13 437.91,436.95 438.92,434.50 C441.47,428.36 442.68,425.18 447.60,411.72 C450.57,403.59 453.00,396.08 453.00,395.03 C453.00,392.98 449.50,390.00 447.09,390.00 C445.29,390.00 441.00,393.91 441.00,395.55 C441.00,396.21 439.88,399.29 438.51,402.39 C437.13,405.49 436.08,408.36 436.17,408.77 C436.26,409.17 435.36,411.66 434.18,414.30 C433.00,416.93 432.09,419.41 432.17,419.80 C432.25,420.18 431.32,422.64 430.10,425.26 C428.89,427.88 428.15,430.44 428.46,430.94 C428.78,431.45 428.57,432.15 428.00,432.50 C427.43,432.85 427.23,433.56 427.54,434.07 C427.86,434.58 427.64,435.00 427.06,435.00 C426.48,435.00 426.07,435.34 426.16,435.75 C426.25,436.16 425.81,437.75 425.18,439.28 C424.55,440.80 423.84,443.11 423.60,444.40 C423.37,445.68 422.69,447.59 422.10,448.62 C421.50,449.65 420.04,453.17 418.86,456.44 C415.10,466.85 414.77,467.00 395.80,467.00 C380.05,467.01 363.55,468.89 351.98,472.01 C346.75,473.41 345.00,472.78 345.00,469.47 C345.00,468.00 345.43,467.15 346.00,467.50 C346.55,467.84 348.23,467.47 349.75,466.68 C357.24,462.77 375.07,459.97 394.39,459.65 L 411.28 459.38 L 413.60 456.67 C414.88,455.19 416.41,452.06 417.00,449.73 C417.58,447.41 418.93,443.48 420.00,441.00 C421.07,438.52 422.44,434.53 423.04,432.12 C423.65,429.71 424.55,427.01 425.05,426.12 C426.39,423.72 429.00,416.90 429.00,415.81 C429.00,415.29 428.10,415.15 427.00,415.50 C425.16,416.08 425.09,415.91 426.13,413.32 C426.76,411.77 427.83,408.02 428.53,405.00 C429.27,401.78 429.85,400.54 429.93,402.00 L 430.07 404.50 L 431.39 402.11 C432.25,400.57 432.96,400.13 433.42,400.86 C433.80,401.49 433.69,402.00 433.16,402.00 C432.07,402.00 429.72,408.05 430.50,408.83 C431.40,409.73 432.09,408.33 435.16,399.37 C437.80,391.64 438.04,390.08 437.07,386.82 C435.86,382.81 431.87,379.00 428.87,379.00 C427.84,379.00 427.00,378.56 427.00,378.03 C427.00,377.50 426.33,377.32 425.50,377.64 C424.67,377.96 424.00,377.67 424.00,376.98 C424.00,375.31 406.79,376.14 406.22,377.84 C406.01,378.48 405.44,378.77 404.96,378.47 C403.81,377.77 397.00,380.63 397.00,381.82 C397.00,382.33 395.71,383.01 394.12,383.33 C392.54,383.64 389.55,385.50 387.48,387.45 C385.41,389.40 383.42,391.00 383.06,391.00 C381.94,391.00 375.93,397.59 376.51,398.18 C376.81,398.48 375.46,399.94 373.51,401.43 C371.56,402.91 370.19,404.50 370.48,404.96 C370.76,405.42 370.29,406.06 369.43,406.39 C368.57,406.72 368.14,407.42 368.46,407.94 C368.79,408.47 368.13,409.39 367.00,410.00 C365.87,410.61 365.21,411.53 365.54,412.06 C365.86,412.58 365.43,413.28 364.57,413.61 C363.71,413.94 363.26,414.61 363.56,415.10 C363.87,415.60 363.61,416.00 363.00,416.00 C362.39,416.00 362.16,416.45 362.50,417.00 C362.84,417.55 362.61,418.00 362.00,418.00 C361.39,418.00 361.16,418.45 361.50,419.00 C361.84,419.55 361.64,420.00 361.06,420.00 C360.48,420.00 360.09,420.34 360.20,420.75 C360.31,421.16 358.51,425.36 356.20,430.07 C353.89,434.79 352.00,439.18 352.00,439.82 C352.00,440.47 351.52,441.00 350.94,441.00 C350.36,441.00 350.16,441.45 350.50,442.00 C350.84,442.55 350.59,443.00 349.95,443.00 C349.31,443.00 349.03,443.62 349.32,444.39 C349.61,445.15 349.22,446.66 348.46,447.75 C347.70,448.84 347.35,450.02 347.70,450.37 C348.05,450.72 347.78,451.00 347.11,451.00 C346.43,451.00 346.16,451.45 346.50,452.00 C346.84,452.55 346.64,453.00 346.06,453.00 C345.48,453.00 345.05,453.34 345.12,453.75 C345.18,454.16 345.15,454.73 345.04,455.00 C344.94,455.27 344.65,456.61 344.40,457.96 C344.15,459.31 343.62,460.66 343.22,460.96 C342.83,461.26 342.35,462.40 342.16,463.50 C341.97,464.60 341.41,465.65 340.90,465.84 C340.40,466.02 340.24,466.58 340.55,467.09 C340.86,467.59 340.74,468.00 340.27,468.00 C339.81,468.00 339.35,469.01 339.26,470.24 C339.16,471.46 338.62,472.63 338.04,472.82 C337.46,473.01 337.24,473.58 337.55,474.09 C337.86,474.59 337.64,475.00 337.06,475.00 C335.61,475.00 335.72,477.77 337.25,479.50 C338.93,481.41 341.22,481.31 349.50,478.94 ZM 539.48 442.57 C543.66,440.83 549.71,435.44 551.60,431.80 C553.83,427.50 553.40,418.90 550.75,414.90 C548.18,411.02 537.29,405.14 532.50,405.05 C524.71,404.90 516.27,400.07 517.62,396.54 C519.20,392.42 534.39,392.01 542.19,395.87 C544.53,397.02 546.80,397.60 547.25,397.15 C547.70,396.70 548.95,394.02 550.02,391.18 L 551.98 386.03 L 549.55 384.44 C542.85,380.05 527.19,378.74 516.57,381.68 C513.23,382.60 510.27,383.61 510.00,383.93 C509.73,384.24 507.92,385.87 506.00,387.54 C502.04,390.98 501.52,392.39 501.51,399.68 C501.49,409.15 506.67,413.45 523.01,417.50 C529.10,419.01 534.97,420.98 536.04,421.88 C538.99,424.33 536.69,427.77 530.50,430.17 C526.38,431.77 524.93,431.91 522.26,430.99 C520.47,430.38 518.61,430.12 518.13,430.42 C517.64,430.72 515.84,430.27 514.13,429.42 C512.42,428.56 510.57,428.15 510.01,428.49 C509.46,428.84 509.00,428.57 509.00,427.89 C509.00,427.22 508.72,426.95 508.38,427.29 C508.04,427.63 507.13,427.27 506.35,426.49 C504.92,425.06 501.59,425.53 502.52,427.04 C502.80,427.49 502.57,428.15 502.00,428.50 C501.43,428.85 501.23,429.56 501.54,430.07 C501.86,430.58 501.59,431.00 500.95,431.00 C500.31,431.00 500.05,431.67 500.36,432.50 C500.68,433.33 500.47,434.00 499.91,434.00 C499.34,434.00 499.16,434.45 499.50,435.00 C499.84,435.55 499.60,436.00 498.98,436.00 C496.11,436.00 499.20,438.62 505.06,441.15 C510.92,443.67 512.61,443.93 523.78,443.96 C532.23,443.99 537.13,443.55 539.48,442.57 ZM 574.22 430.25 L 574.50 416.50 L 590.00 416.50 L 605.50 416.50 L 605.50 430.29 L 605.50 444.07 L 613.50 443.79 L 621.50 443.50 L 621.83 437.00 C622.02,433.42 621.86,419.14 621.47,405.25 L 620.77 380.00 L 613.14 380.00 L 605.50 380.00 L 605.50 391.25 L 605.50 402.50 L 589.75 402.78 L 574.00 403.05 L 574.00 391.48 L 574.00 379.92 L 566.25 380.21 L 558.50 380.50 L 558.29 412.25 L 558.08 444.00 L 566.01 444.00 L 573.94 444.00 L 574.22 430.25 ZM 646.79 437.25 L 649.35 431.00 L 663.09 431.00 C676.92,431.00 680.45,431.45 679.44,433.10 C679.13,433.60 679.39,434.00 680.00,434.00 C680.61,434.00 680.90,434.36 680.63,434.79 C680.36,435.23 680.98,437.48 682.02,439.79 L 683.90 444.00 L 692.45 444.00 C698.64,444.00 700.99,443.66 700.96,442.75 C700.92,441.53 695.47,430.80 677.54,396.71 L 668.71 379.91 L 662.84 380.21 C659.62,380.37 656.99,380.84 656.99,381.25 C657.02,382.61 639.87,416.27 638.41,417.73 C637.62,418.52 637.24,419.57 637.55,420.08 C637.86,420.59 637.61,421.00 637.00,421.00 C636.39,421.00 636.16,421.45 636.50,422.00 C636.84,422.55 636.61,423.00 636.00,423.00 C635.39,423.00 635.16,423.45 635.50,424.00 C635.84,424.55 635.61,425.00 635.00,425.00 C634.39,425.00 634.16,425.45 634.50,426.00 C634.84,426.55 634.61,427.00 634.00,427.00 C633.39,427.00 633.16,427.45 633.50,428.00 C633.84,428.55 633.61,429.00 633.00,429.00 C632.39,429.00 632.16,429.45 632.50,430.00 C632.84,430.55 632.61,431.00 632.00,431.00 C631.39,431.00 631.16,431.45 631.50,432.00 C631.84,432.55 631.61,433.00 631.00,433.00 C630.39,433.00 630.16,433.45 630.50,434.00 C630.84,434.55 630.61,435.00 630.00,435.00 C629.39,435.00 629.16,435.45 629.50,436.00 C629.84,436.55 629.61,437.00 629.00,437.00 C628.39,437.00 628.16,437.45 628.50,438.00 C628.84,438.55 628.61,439.00 628.00,439.00 C627.39,439.00 627.16,439.45 627.50,440.00 C627.84,440.55 627.72,441.00 627.23,441.00 C626.73,441.00 626.33,441.69 626.33,442.54 C626.33,443.82 627.78,444.02 635.28,443.79 L 644.23 443.50 L 646.79 437.25 ZM 720.23 425.25 L 720.50 406.50 L 739.00 425.27 L 757.50 444.05 L 762.50 443.37 C765.25,443.00 767.83,442.20 768.23,441.60 C768.64,440.99 768.98,426.87 768.98,410.21 L 769.00 379.92 L 761.25 380.21 L 753.50 380.50 L 753.23 399.84 L 752.96 419.18 L 733.57 399.53 L 714.18 379.88 L 709.34 380.19 L 704.50 380.50 L 704.30 409.50 C704.19,425.45 704.31,439.49 704.56,440.70 C704.97,442.67 705.75,442.95 711.76,443.26 C715.47,443.45 718.83,443.70 719.23,443.80 C719.63,443.91 720.08,435.56 720.23,425.25 ZM 817.25 441.85 C830.27,437.37 836.99,432.07 840.62,423.38 C842.81,418.13 842.32,404.81 839.72,399.00 C837.50,394.03 832.33,388.00 830.30,388.00 C829.59,388.00 829.00,387.52 829.00,386.94 C829.00,386.36 828.55,386.16 828.00,386.50 C827.45,386.84 827.00,386.61 827.00,386.00 C827.00,385.39 826.55,385.16 826.00,385.50 C825.45,385.84 825.00,385.61 825.00,385.00 C825.00,384.39 824.55,384.16 824.00,384.50 C823.45,384.84 823.00,384.59 823.00,383.95 C823.00,383.31 822.34,383.04 821.53,383.35 C820.72,383.66 819.81,383.50 819.50,383.00 C819.19,382.50 818.28,382.34 817.47,382.65 C816.66,382.96 816.00,382.83 816.00,382.36 C816.00,381.89 807.62,381.34 797.38,381.14 C782.44,380.84 778.59,381.04 777.89,382.14 C776.89,383.72 776.67,442.34 777.67,443.33 C778.03,443.70 785.68,444.00 794.66,444.00 C808.77,444.00 811.84,443.71 817.25,441.85 ZM 900.00 437.00 L 900.00 430.00 L 883.50 430.00 L 867.00 430.00 L 867.00 423.50 L 867.00 417.00 L 881.50 417.00 L 896.00 417.00 L 896.00 410.03 L 896.00 403.05 L 881.75 402.78 L 867.50 402.50 L 867.19 398.25 L 866.89 394.00 L 883.44 394.00 L 900.00 394.00 L 900.00 387.50 L 900.00 381.00 L 874.50 381.00 L 849.00 381.00 L 849.00 412.50 L 849.00 444.00 L 874.50 444.00 L 900.00 444.00 L 900.00 437.00 ZM 923.00 424.94 C923.00,411.24 923.30,407.01 924.25,407.03 C924.94,407.05 927.53,411.54 930.00,417.00 C932.47,422.46 934.86,426.95 935.31,426.97 C935.75,426.98 935.84,427.45 935.50,428.00 C935.16,428.55 935.43,429.00 936.11,429.00 C936.78,429.00 937.05,429.28 936.71,429.62 C936.37,429.96 936.75,430.90 937.56,431.70 C938.36,432.50 938.76,433.57 938.45,434.08 C938.14,434.59 938.36,435.00 938.94,435.00 C939.52,435.00 939.89,435.56 939.75,436.25 C939.60,437.00 940.80,437.63 942.72,437.81 C945.88,438.12 946.05,437.91 950.87,428.31 C953.57,422.92 957.30,415.62 959.14,412.11 C962.40,405.91 962.52,405.80 963.13,408.61 C963.48,410.20 963.82,418.61 963.88,427.29 L 964.00 443.08 L 971.75 442.79 L 979.50 442.50 L 979.50 412.00 L 979.50 381.50 L 968.50 381.50 C960.23,381.50 957.56,381.81 957.75,382.75 C957.89,383.44 957.55,384.00 957.00,384.00 C956.45,384.00 956.09,384.34 956.20,384.75 C956.57,386.16 954.87,390.00 953.87,390.00 C953.33,390.00 953.16,390.45 953.50,391.00 C953.84,391.55 953.61,392.00 953.00,392.00 C952.39,392.00 952.16,392.45 952.50,393.00 C952.84,393.55 952.61,394.00 952.00,394.00 C951.39,394.00 951.14,394.41 951.45,394.92 C951.76,395.43 951.36,396.50 950.56,397.30 C949.75,398.10 949.37,399.04 949.71,399.38 C950.05,399.72 949.78,400.00 949.11,400.00 C948.43,400.00 948.16,400.45 948.50,401.00 C948.84,401.55 948.61,402.00 948.00,402.00 C947.39,402.00 947.16,402.45 947.50,403.00 C947.84,403.55 947.61,404.00 947.00,404.00 C946.39,404.00 946.16,404.45 946.50,405.00 C946.84,405.55 946.61,406.00 946.00,406.00 C945.39,406.00 945.16,406.45 945.50,407.00 C945.84,407.55 945.57,408.00 944.89,408.00 C944.22,408.00 943.94,408.27 944.27,408.61 C944.61,408.94 944.34,409.81 943.69,410.53 C942.74,411.57 940.96,408.73 935.00,396.67 L 927.50 381.50 L 917.75 381.21 L 908.00 380.93 L 908.00 411.92 L 908.00 442.91 L 914.75 443.20 C918.46,443.37 921.84,443.36 922.25,443.19 C922.66,443.02 923.00,434.81 923.00,424.94 ZM 1026.00 431.08 L 1026.00 419.16 L 1031.75 410.05 C1044.95,389.11 1049.00,382.41 1049.00,381.47 C1049.00,380.30 1030.40,381.14 1028.77,382.38 C1027.81,383.11 1027.31,383.98 1027.66,384.33 C1028.00,384.67 1027.55,385.24 1026.65,385.58 C1025.75,385.93 1025.26,386.61 1025.56,387.10 C1025.87,387.60 1025.61,388.00 1025.00,388.00 C1024.39,388.00 1024.16,388.45 1024.50,389.01 C1024.85,389.56 1024.43,390.28 1023.57,390.61 C1022.71,390.94 1022.26,391.61 1022.56,392.10 C1022.87,392.60 1022.61,393.00 1022.00,393.00 C1021.39,393.00 1021.16,393.45 1021.50,394.00 C1021.84,394.55 1021.61,395.00 1021.00,395.00 C1020.39,395.00 1020.13,395.40 1020.44,395.90 C1020.74,396.39 1020.29,397.06 1019.43,397.39 C1018.57,397.72 1018.07,398.33 1018.31,398.74 C1018.55,399.16 1017.99,400.27 1017.08,401.21 C1015.51,402.81 1015.29,402.69 1013.48,399.21 C1012.42,397.17 1010.43,393.70 1009.06,391.50 C1007.69,389.30 1005.82,386.15 1004.92,384.50 C1003.29,381.55 1003.13,381.50 994.13,381.21 C986.46,380.97 985.00,381.17 985.00,382.46 C985.00,383.31 985.48,384.00 986.06,384.00 C986.64,384.00 986.87,384.40 986.56,384.90 C986.26,385.39 986.71,386.06 987.57,386.39 C988.43,386.72 988.85,387.44 988.50,387.99 C988.16,388.55 988.39,389.00 989.00,389.00 C989.61,389.00 989.87,389.40 989.56,389.90 C989.26,390.39 989.71,391.06 990.57,391.39 C991.43,391.72 991.85,392.44 991.50,392.99 C991.16,393.55 991.36,394.00 991.94,394.00 C992.52,394.00 993.00,394.67 993.00,395.50 C993.00,396.33 993.53,397.00 994.17,397.00 C994.81,397.00 995.07,397.26 994.75,397.58 C994.43,397.90 995.05,399.05 996.12,400.12 C997.19,401.19 997.80,402.51 997.48,403.04 C997.15,403.57 997.36,404.00 997.94,404.00 C998.52,404.00 999.00,404.45 999.00,405.00 C999.00,405.55 999.92,406.92 1001.04,408.04 C1002.16,409.16 1002.80,410.51 1002.48,411.04 C1002.15,411.57 1002.36,412.00 1002.94,412.00 C1003.52,412.00 1004.00,412.67 1004.00,413.50 C1004.00,414.33 1004.34,415.00 1004.75,415.01 C1005.16,415.01 1006.29,416.40 1007.25,418.09 C1008.62,420.50 1009.00,423.52 1009.00,432.08 L 1009.00 443.00 L 1017.50 443.00 L 1026.00 443.00 L 1026.00 431.08 ZM 232.00 422.55 C232.00,421.27 229.57,417.00 228.84,417.00 C227.74,417.00 227.78,417.42 229.16,420.45 C230.15,422.62 232.00,423.99 232.00,422.55 ZM 227.00 409.08 C227.00,407.22 225.77,405.03 224.99,405.51 C223.97,406.14 224.94,410.00 226.12,410.00 C226.60,410.00 227.00,409.59 227.00,409.08 ZM 411.00 358.00 C413.67,355.33 413.52,352.77 410.50,349.18 C408.12,346.36 408.00,345.59 408.00,333.65 L 408.00 321.08 L 412.25 319.94 C423.49,316.93 427.50,315.40 427.50,314.13 C427.50,313.31 424.89,311.99 421.00,310.83 C413.82,308.70 369.14,294.31 348.01,287.33 C337.90,283.99 333.67,283.03 331.13,283.50 C329.28,283.85 310.82,289.72 290.13,296.54 C269.43,303.37 250.93,309.45 249.00,310.05 C242.79,311.99 240.00,313.22 240.00,314.04 C240.00,314.96 248.09,317.59 263.00,321.52 C268.77,323.04 274.93,325.13 276.68,326.18 C280.86,328.67 285.52,335.83 287.01,342.03 C287.66,344.76 288.63,347.00 289.17,347.00 C289.70,347.00 289.85,347.90 289.50,349.00 C289.15,350.10 289.32,351.00 289.87,351.00 C290.42,351.00 290.79,352.19 290.69,353.64 C290.35,358.39 292.57,357.16 294.98,351.27 C296.28,348.10 297.65,345.27 298.02,345.00 C298.40,344.73 299.18,343.58 299.77,342.46 C300.41,341.24 303.47,339.50 307.41,338.11 C313.30,336.03 315.62,335.80 329.73,335.92 C338.39,335.99 347.10,336.49 349.10,337.03 C352.99,338.07 360.66,343.64 360.25,345.11 C360.11,345.60 360.48,346.00 361.06,346.00 C361.64,346.00 361.84,346.45 361.50,347.00 C361.16,347.55 361.39,348.00 362.00,348.00 C362.61,348.00 362.84,348.45 362.50,349.00 C362.16,349.55 362.43,350.00 363.11,350.00 C363.78,350.00 364.04,350.29 363.68,350.65 C363.33,351.01 363.92,352.06 364.99,352.99 C366.18,354.02 366.78,355.54 366.52,356.87 C366.29,358.07 366.51,358.80 367.01,358.49 C367.51,358.18 368.23,356.26 368.60,354.21 C369.48,349.41 374.49,335.70 376.49,332.65 C378.54,329.53 388.75,325.36 398.50,323.66 C400.15,323.37 402.29,322.84 403.25,322.46 C404.86,321.84 405.00,322.83 405.00,335.16 C405.00,348.25 404.95,348.56 402.50,350.40 C399.20,352.88 399.30,356.10 402.75,358.24 C406.38,360.49 408.57,360.43 411.00,358.00 ZM 656.00 417.97 C656.00,415.76 662.48,402.00 663.52,402.00 C664.67,402.00 667.79,408.30 668.52,412.12 C668.76,413.35 669.30,414.61 669.73,414.93 C670.15,415.24 670.63,416.29 670.79,417.25 C671.05,418.79 670.17,419.00 663.54,419.00 C659.01,419.00 656.00,418.59 656.00,417.97 ZM 801.25 429.26 L 794.00 428.91 L 794.00 411.96 L 794.00 395.00 L 802.53 395.00 C807.85,395.00 812.42,395.56 814.65,396.50 C818.70,398.19 825.16,403.50 824.26,404.41 C823.93,404.73 824.24,405.00 824.94,405.00 C825.66,405.00 825.96,405.65 825.64,406.50 C825.32,407.33 825.56,408.00 826.17,408.00 C826.92,408.00 827.08,409.69 826.66,413.18 C825.82,420.30 822.06,424.78 814.45,427.72 C811.22,428.98 808.56,429.91 808.54,429.80 C808.52,429.69 805.24,429.45 801.25,429.26 Z" fill="rgb(254,254,254)"/>
</g>
</svg>